<?xml version="1.0" standalone="no"?>
<!DOCTYPE svg PUBLIC "-//W3C//DTD SVG 20010904//EN"
 "http://www.w3.org/TR/2001/REC-SVG-20010904/DTD/svg10.dtd">
<svg version="1.0" xmlns="http://www.w3.org/2000/svg"
 width="2784.000000pt" height="3360.000000pt" viewBox="0 0 2784.000000 3360.000000"
 preserveAspectRatio="xMidYMid meet">
<metadata>
Created by potrace 1.10, written by Peter Selinger 2001-2011
</metadata>
<g transform="translate(0.000000,3360.000000) scale(0.100000,-0.100000)"
fill="#000000" stroke="none">
<path d="M8987 33232 c-20 -21 -27 -38 -27 -68 0 -53 -11 -69 -38 -55 -33 18
-103 14 -118 -6 -13 -17 -15 -17 -25 0 -14 24 -114 25 -127 1 -8 -15 -10 -15
-15 0 -9 24 -112 23 -127 -1 -10 -17 -10 -17 -20 0 -8 11 -24 17 -50 17 -50 0
-70 -8 -70 -29 0 -10 -11 -27 -25 -39 -20 -18 -25 -31 -25 -69 0 -28 6 -53 16
-64 15 -16 15 -20 0 -41 -20 -28 -20 -74 -1 -111 13 -25 13 -30 0 -44 -18 -17
-20 -76 -3 -102 9 -15 9 -25 0 -46 -16 -36 -15 -76 4 -103 14 -20 14 -24 0
-44 -20 -28 -20 -65 -2 -99 8 -16 10 -32 5 -40 -13 -21 -11 -96 3 -119 10 -16
10 -24 0 -40 -15 -25 -16 -112 0 -128 9 -9 9 -15 0 -24 -16 -16 -15 -102 1
-129 10 -17 10 -23 0 -26 -19 -7 -17 -107 2 -123 14 -12 14 -15 0 -30 -9 -10
-15 -35 -15 -62 0 -29 6 -50 15 -58 14 -12 14 -15 0 -30 -20 -22 -20 -98 1
-121 15 -16 15 -23 3 -51 -17 -42 -16 -81 5 -113 19 -29 31 -32 41 -7 3 9 6
366 5 792 -1 426 -2 780 -1 787 1 9 64 11 264 8 184 -2 272 0 297 8 34 12 35
13 36 70 3 131 104 129 104 -2 0 -39 4 -53 19 -61 12 -6 131 -11 293 -13 150
-1 279 -6 286 -10 6 -5 12 -23 12 -40 0 -18 5 -48 11 -67 6 -19 15 -53 19 -75
4 -22 16 -71 25 -110 16 -66 31 -131 59 -255 7 -30 15 -62 18 -70 4 -8 9 -33
13 -55 4 -22 12 -60 20 -85 17 -60 36 -136 46 -185 4 -22 15 -69 24 -105 9
-36 22 -90 28 -120 7 -30 15 -59 19 -65 3 -5 9 -32 13 -60 4 -27 13 -70 20
-95 27 -94 47 -188 43 -204 -3 -16 -70 -17 -850 -17 l-848 1 -15 -30 c-19 -38
-19 -75 1 -106 16 -23 16 -27 -1 -64 -21 -48 -14 -98 17 -122 22 -16 22 -17 4
-37 -27 -30 -34 -122 -12 -156 16 -24 16 -27 -4 -52 -26 -33 -26 -83 0 -116
11 -14 20 -28 20 -32 0 -4 -9 -18 -20 -32 -26 -33 -25 -69 1 -112 18 -30 18
-34 4 -45 -8 -6 -18 -28 -22 -49 -5 -30 -1 -45 17 -68 l22 -31 -21 -22 c-28
-29 -28 -85 0 -120 l21 -27 -21 -23 c-30 -32 -28 -88 7 -137 15 -21 30 -39 35
-39 9 0 9 -26 9 517 1 332 4 477 12 488 9 11 19 12 51 5 59 -14 2010 -13 2037
1 12 6 24 7 29 2 14 -14 14 -1152 0 -1166 -6 -6 -11 -17 -11 -23 0 -22 -18
-25 -50 -9 -39 20 -38 31 4 39 l34 7 -1 55 c-2 74 -22 90 -91 73 -55 -14 -64
-28 -58 -92 4 -45 6 -49 27 -44 13 2 29 1 36 -4 19 -11 -7 -39 -37 -39 -22 0
-54 23 -54 39 0 17 -54 31 -115 31 -62 0 -65 -1 -65 -25 0 -20 -6 -25 -36 -31
-38 -7 -50 0 -56 31 -3 18 -12 20 -88 23 l-85 2 -17 -30 c-13 -23 -24 -30 -46
-30 -25 0 -32 6 -46 45 -11 27 -15 56 -11 73 5 24 1 32 -19 46 -70 45 -180
-14 -144 -77 5 -9 4 -18 -2 -22 -5 -3 -10 -14 -10 -23 0 -14 7 -17 40 -14 32
3 40 1 40 -12 0 -15 -18 -22 -50 -17 -8 1 -40 3 -70 4 -49 2 -55 4 -60 27 -6
24 -9 25 -84 25 -70 0 -79 -2 -95 -24 -29 -39 -44 -18 -37 49 7 58 7 58 -27
79 -41 25 -76 27 -115 4 -27 -15 -29 -21 -30 -76 l-1 -58 30 6 c22 5 31 3 35
-10 10 -26 -10 -37 -50 -29 -26 4 -40 13 -46 30 -11 29 -38 36 -115 32 -54 -3
-60 -5 -63 -26 -7 -44 -75 -41 -92 4 -10 24 -13 26 -63 20 -125 -13 -111 -17
-117 38 -5 46 -7 50 -43 62 -30 11 -45 11 -75 1 -35 -12 -37 -15 -37 -54 0
-23 -3 -45 -7 -49 -16 -16 -7 -24 27 -24 40 0 45 -14 13 -41 -37 -33 -96 -18
-68 16 15 18 -1 20 -18 3 -8 -8 -15 -8 -27 2 -21 17 -19 37 5 50 23 12 25 35
8 73 -16 33 -35 34 -77 3 -18 -14 -39 -22 -47 -19 -25 9 -27 44 -5 74 24 33
28 91 6 109 -8 7 -15 20 -15 30 0 10 7 23 15 30 19 16 19 80 0 106 -19 25 -19
48 0 64 8 7 15 29 15 50 0 21 -7 43 -15 50 -8 7 -15 25 -15 40 0 15 7 33 15
40 32 26 11 100 -28 100 -12 0 -31 6 -42 14 -24 16 -248 20 -277 5 -10 -6 -19
-5 -23 1 -8 13 -91 13 -117 -1 -14 -8 -23 -8 -31 0 -6 6 -31 11 -55 11 -24 0
-53 -5 -64 -11 -14 -8 -23 -8 -31 0 -15 15 -83 14 -107 -1 -41 -26 -42 -15
-33 488 l8 479 350 3 c193 1 360 0 373 -3 l22 -5 0 -458 c0 -365 3 -462 13
-476 13 -18 15 -17 35 9 25 32 29 83 7 111 -19 25 -19 58 0 74 19 16 20 89 0
117 -13 18 -13 22 0 33 20 16 19 80 -1 108 -14 20 -14 24 0 44 21 29 20 77 0
107 -13 17 -14 28 -6 44 22 45 23 67 6 96 -16 28 -16 31 0 65 14 30 15 43 6
71 -6 19 -16 37 -21 40 -5 4 -9 15 -9 26 0 11 -11 24 -25 31 -14 6 -25 14 -25
18 0 18 -61 32 -98 23 -20 -5 -65 -8 -100 -5 -39 3 -67 0 -76 -7 -11 -9 -20
-9 -35 -2 -33 18 -108 14 -120 -6 -9 -17 -10 -17 -28 0 -22 19 -102 24 -119 7
-7 -7 -21 -5 -43 6 -21 10 -44 14 -63 10 -39 -8 -97 -72 -98 -107 0 -15 -7
-29 -15 -33 -11 -4 -15 -20 -15 -54 0 -32 5 -54 15 -62 8 -7 15 -18 15 -25 0
-7 -7 -18 -15 -25 -20 -17 -19 -75 2 -111 16 -26 16 -29 0 -47 -20 -22 -22
-62 -4 -110 10 -28 10 -36 0 -39 -20 -7 -16 -93 4 -116 17 -18 17 -19 0 -32
-23 -17 -24 -101 -1 -127 16 -16 16 -18 0 -24 -21 -8 -22 -100 -1 -124 14 -16
10 -60 -6 -60 -5 0 -15 14 -24 30 -14 28 -20 30 -68 30 -29 0 -58 -5 -65 -12
-9 -9 -15 -9 -24 0 -18 18 -103 15 -118 -3 -12 -14 -15 -14 -30 0 -20 18 -79
20 -115 3 -19 -9 -28 -9 -37 0 -16 16 -91 15 -106 0 -10 -10 -17 -10 -32 0
-29 18 -106 16 -114 -3 -3 -8 -12 -15 -19 -15 -8 0 -20 7 -27 15 -19 23 -89
19 -117 -7 l-23 -22 -16 22 c-22 32 -86 31 -112 -3 -11 -14 -22 -25 -25 -25
-3 0 -8 11 -11 25 -6 22 -12 25 -50 25 -28 0 -52 -7 -68 -19 -24 -19 -24 -19
-36 0 -21 33 -116 23 -126 -14 -6 -22 -6 -22 -19 3 -22 45 -110 39 -128 -8
l-11 -27 -13 33 c-13 29 -18 32 -59 32 -44 0 -76 -18 -76 -43 0 -7 -10 1 -23
16 -19 25 -28 28 -67 25 -36 -2 -47 -8 -57 -28 -7 -14 -13 -20 -13 -13 0 43
-106 62 -132 24 -14 -19 -14 -19 -26 0 -11 17 -22 19 -65 17 -43 -3 -53 -7
-64 -28 -7 -14 -13 -20 -13 -13 0 25 -32 43 -75 43 -39 0 -46 -4 -59 -29 -9
-16 -24 -31 -36 -34 -20 -5 -20 -10 -20 -349 0 -188 0 -349 0 -355 0 -8 -15
-13 -39 -13 -22 0 -52 -5 -67 -10 -34 -13 -37 -10 -39 45 0 24 -4 47 -7 51 -4
3 -36 8 -72 9 -74 4 -92 -8 -83 -54 4 -19 1 -33 -8 -41 -8 -7 -15 -20 -15 -30
0 -49 -78 -49 -90 0 -6 24 -9 25 -93 28 -79 3 -87 1 -87 -16 0 -25 -19 -42
-48 -42 -17 0 -27 8 -35 30 l-11 30 -86 0 c-84 0 -85 0 -102 -31 -16 -27 -22
-30 -60 -27 -36 3 -43 7 -48 28 -6 24 -9 25 -90 25 -81 0 -84 -1 -90 -25 -5
-20 -13 -26 -42 -28 -32 -3 -37 0 -46 27 -11 30 -13 31 -70 31 -32 0 -74 -5
-92 -11 -38 -14 -50 -3 -50 47 0 46 -26 64 -92 64 -57 0 -85 -16 -75 -43 3 -7
-1 -35 -8 -63 -9 -38 -17 -50 -34 -52 -27 -4 -51 14 -51 38 0 23 -20 30 -83
30 -71 0 -97 -9 -97 -31 0 -22 -32 -41 -54 -33 -9 3 -16 14 -16 25 0 27 -31
39 -105 39 -74 0 -105 -12 -105 -39 0 -23 -17 -31 -53 -24 -20 4 -27 11 -27
28 0 28 -17 35 -86 35 -60 0 -94 -13 -94 -35 0 -19 -34 -37 -54 -29 -9 3 -16
15 -16 25 0 26 -37 39 -109 39 -59 0 -81 -11 -81 -42 0 -10 -6 -18 -12 -18 -7
0 -23 -3 -35 -6 -17 -5 -25 0 -34 19 -6 14 -22 30 -35 36 -20 9 -23 15 -18 41
10 46 -8 59 -79 59 -72 -1 -88 -10 -81 -48 8 -38 -16 -55 -65 -48 -44 6 -57 0
-62 -28 -3 -15 -12 -20 -39 -20 -28 0 -35 4 -40 25 -5 22 -12 25 -60 28 -73 4
-98 -3 -102 -31 -2 -18 -9 -22 -38 -22 -28 0 -35 4 -40 25 -6 24 -9 25 -90 25
l-85 0 -3 -28 c-3 -26 -7 -28 -40 -25 -29 2 -37 8 -42 28 -6 24 -10 25 -84 28
-82 3 -106 -6 -106 -39 0 -14 -7 -19 -30 -19 -19 0 -30 5 -30 14 0 33 -30 46
-105 46 -75 0 -105 -13 -105 -46 0 -9 -11 -14 -29 -14 -25 0 -30 4 -33 28 -3
27 -4 27 -78 27 l-75 0 -3 -47 c-3 -43 -6 -48 -27 -48 -37 0 -55 -26 -55 -79
0 -52 9 -64 53 -75 38 -9 37 -44 -3 -58 -39 -13 -50 -35 -50 -98 0 -62 21
-107 52 -112 34 -5 37 -45 4 -54 -40 -10 -49 -29 -47 -102 1 -63 3 -69 36 -97
44 -38 45 -61 4 -70 -34 -8 -49 -36 -49 -89 0 -67 11 -95 46 -117 43 -26 43
-46 -1 -65 -37 -15 -38 -18 -37 -107 1 -59 13 -87 37 -87 20 0 37 -27 31 -48
-4 -11 -19 -22 -35 -25 -22 -5 -30 -13 -35 -38 -16 -82 -1 -145 38 -155 41
-10 46 -74 7 -74 -32 0 -41 -22 -41 -103 0 -78 0 -78 30 -88 45 -16 40 -68 -7
-83 -26 -8 -32 -32 -28 -111 3 -44 8 -63 21 -70 40 -23 55 -45 44 -65 -6 -11
-17 -20 -25 -20 -27 0 -45 -31 -45 -79 0 -72 16 -108 51 -115 17 -3 29 -12 29
-21 0 -14 -10 -25 -62 -70 -13 -11 -18 -29 -17 -67 1 -73 11 -101 39 -115 46
-23 46 -53 -1 -77 -22 -11 -24 -19 -27 -93 l-3 -82 36 -15 c41 -18 48 -51 13
-62 -49 -14 -58 -32 -58 -115 l0 -77 35 -21 c47 -28 48 -63 2 -76 l-32 -10 -3
-82 c-3 -81 -3 -82 26 -97 58 -30 65 -68 14 -81 -37 -9 -42 -20 -42 -102 0
-77 1 -79 60 -122 21 -16 22 -21 11 -35 -7 -9 -22 -16 -32 -16 -25 0 -36 -26
-37 -89 -1 -47 3 -57 29 -81 24 -23 29 -36 29 -74 0 -40 -3 -48 -24 -56 -31
-11 -43 -76 -27 -137 9 -33 16 -42 41 -47 42 -8 39 -37 -8 -67 -34 -22 -37
-28 -40 -78 -4 -78 3 -99 43 -118 43 -21 47 -50 8 -59 -47 -11 -53 -22 -53
-95 0 -76 15 -119 40 -119 28 0 45 -27 30 -45 -7 -8 -19 -15 -26 -15 -29 0
-44 -44 -39 -110 4 -66 9 -75 47 -94 37 -18 34 -43 -6 -60 -40 -17 -45 -31
-43 -120 2 -58 3 -60 40 -80 49 -26 52 -62 4 -74 -31 -8 -32 -9 -38 -77 -8
-89 -3 -103 35 -113 25 -7 32 -14 34 -38 3 -26 -1 -31 -30 -39 -31 -9 -33 -14
-39 -62 -9 -75 1 -115 34 -131 37 -18 37 -56 0 -74 -27 -13 -28 -17 -31 -95
l-3 -82 36 -15 c46 -19 44 -40 -5 -71 l-40 -25 0 -81 0 -80 34 -14 c47 -20 62
-75 20 -75 -8 0 -23 -9 -34 -20 -16 -16 -18 -28 -14 -72 8 -80 13 -98 28 -98
30 0 35 -63 6 -83 -27 -19 -40 -59 -40 -127 0 -58 0 -59 40 -81 49 -28 54 -57
10 -66 -40 -8 -50 -29 -50 -105 0 -71 2 -75 47 -107 41 -28 42 -47 3 -56 -39
-9 -50 -31 -50 -104 0 -78 12 -106 49 -119 42 -15 42 -49 1 -64 -40 -13 -50
-35 -50 -103 0 -70 11 -91 50 -98 42 -9 39 -38 -8 -68 -35 -23 -37 -27 -40
-86 -3 -70 8 -100 44 -113 28 -11 33 -48 7 -57 -44 -15 -53 -34 -53 -107 0
-78 6 -92 41 -110 37 -18 34 -41 -6 -65 l-36 -21 3 -81 c2 -66 6 -84 20 -90
10 -5 26 -13 35 -17 30 -15 25 -30 -16 -57 l-41 -25 0 -73 c0 -79 6 -93 41
-111 34 -16 36 -44 5 -55 -35 -14 -46 -40 -46 -109 0 -57 2 -61 37 -90 32 -26
36 -34 27 -49 -6 -10 -20 -20 -30 -22 -29 -5 -34 -20 -34 -103 0 -75 1 -78 28
-92 58 -30 60 -52 7 -77 -29 -14 -30 -17 -33 -92 l-3 -78 36 -14 c49 -21 49
-59 0 -79 l-35 -15 0 -80 0 -81 35 -14 c49 -21 49 -60 0 -80 l-35 -15 0 -80 0
-81 35 -14 c44 -19 44 -37 0 -70 -35 -27 -35 -28 -35 -105 0 -46 5 -82 12 -89
8 -8 49 -12 119 -12 100 0 108 -1 114 -21 9 -27 36 -36 109 -34 97 3 96 3 96
30 0 21 5 25 30 25 23 0 33 -6 42 -25 6 -14 16 -25 22 -25 31 -2 123 -2 139
-1 10 0 22 12 27 26 7 19 17 25 40 25 16 0 30 -4 30 -10 0 -5 9 -19 20 -30 16
-16 33 -20 79 -20 75 0 111 13 111 40 0 32 57 28 70 -5 11 -28 7 -27 93 -29
75 -3 87 1 87 25 0 12 9 21 25 25 33 8 55 -1 55 -24 0 -15 9 -21 37 -26 89
-14 144 -5 158 27 7 15 21 23 42 25 28 3 33 0 33 -18 0 -27 35 -40 108 -40 64
0 78 6 83 35 3 15 13 21 42 23 33 3 37 1 37 -21 0 -24 4 -25 77 -32 90 -8 133
4 133 35 0 31 57 28 70 -4 8 -21 16 -24 77 -28 79 -6 113 4 113 31 0 40 66 37
72 -2 3 -19 12 -23 61 -29 67 -9 107 3 107 31 0 22 28 35 54 25 9 -3 16 -17
16 -29 0 -20 6 -25 43 -30 23 -4 62 -4 87 -1 25 2 48 5 53 5 4 1 7 10 7 21 0
10 9 24 20 30 30 16 60 3 60 -24 0 -27 29 -36 109 -36 53 0 67 7 72 35 3 15
13 21 42 23 32 3 37 0 37 -17 0 -28 31 -42 88 -41 84 3 102 9 102 36 0 22 4
24 45 24 41 0 45 -2 45 -25 0 -14 3 -25 8 -26 51 -6 132 -8 150 -4 15 4 22 13
22 29 0 15 7 26 20 29 30 8 60 -3 60 -22 0 -32 22 -41 101 -41 78 0 103 11 97
41 -2 10 10 15 40 17 39 3 42 1 42 -22 0 -24 3 -26 48 -27 71 0 355 0 374 0 9
1 18 11 20 24 2 17 11 23 36 25 26 3 34 -1 41 -21 12 -30 29 -37 96 -37 67 0
84 7 96 36 12 34 66 34 71 2 3 -20 11 -24 58 -30 30 -4 76 -5 103 -2 41 5 47
9 47 29 0 13 6 25 14 28 21 8 56 -3 56 -18 0 -8 7 -21 16 -29 15 -15 46 -16
162 -7 6 1 12 9 12 20 0 45 60 54 70 11 6 -25 8 -25 105 -25 92 0 100 2 103
20 6 31 17 38 51 30 21 -4 31 -13 31 -25 0 -10 4 -21 9 -24 9 -6 190 -10 333
-7 82 1 87 2 90 24 2 18 10 23 46 25 39 3 42 1 42 -22 0 -21 5 -26 28 -27 23
-1 112 -1 150 1 6 0 12 9 12 20 0 23 40 46 64 37 8 -3 16 -16 18 -29 3 -22 7
-23 93 -23 86 0 90 1 93 22 2 15 13 25 28 29 35 9 54 -2 54 -30 0 -21 5 -24
39 -28 22 -2 65 -1 96 2 47 4 58 9 68 30 7 14 23 26 35 28 17 3 25 -3 33 -27
l11 -31 89 0 c83 0 89 1 89 20 0 23 40 46 64 37 8 -3 16 -16 18 -29 3 -22 6
-23 103 -23 98 0 99 0 105 25 9 38 54 40 72 3 13 -27 15 -28 93 -28 75 0 80 1
83 23 8 53 79 52 84 -1 l3 -32 100 0 100 0 3 33 c3 28 7 32 32 32 23 0 33 -7
45 -30 15 -30 17 -30 95 -30 76 0 79 1 92 28 9 19 21 27 38 27 17 0 29 -8 38
-27 13 -28 14 -28 108 -28 93 0 94 0 94 25 0 45 80 49 90 5 6 -24 9 -25 92
-28 l87 -3 3 28 c3 24 8 28 33 28 23 0 33 -7 43 -27 13 -27 15 -28 102 -28
l89 0 3 28 c3 24 7 27 43 27 34 0 40 -4 45 -25 6 -24 10 -25 88 -28 l83 -3 10
31 c9 24 17 30 40 30 22 0 32 -7 44 -30 15 -30 17 -30 95 -30 78 0 80 0 95 30
21 41 68 42 87 3 13 -27 16 -28 93 -28 76 0 79 1 85 25 5 21 12 25 45 25 32 0
40 -4 44 -20 5 -30 19 -35 96 -35 74 0 84 3 101 35 15 28 60 32 73 6 6 -11 21
-21 33 -23 23 -3 23 -6 23 -138 0 -129 2 -137 28 -186 16 -28 47 -66 69 -85
78 -64 106 -94 128 -139 12 -25 25 -52 30 -60 4 -9 11 -31 15 -50 4 -19 11
-39 15 -45 4 -5 10 -22 14 -37 8 -35 62 -125 101 -169 43 -48 102 -92 160
-119 28 -12 61 -28 74 -34 13 -6 56 -11 95 -11 66 0 75 3 128 38 85 57 190
195 205 269 3 15 10 31 14 34 15 9 10 79 -8 115 -9 19 -31 50 -49 69 -34 36
-31 50 13 50 13 0 24 8 28 20 9 30 58 27 79 -5 15 -23 22 -25 100 -25 l84 0
11 31 c9 26 14 30 43 27 25 -2 34 -9 38 -28 6 -24 10 -25 84 -28 88 -3 101 3
101 51 0 32 1 32 53 35 43 3 55 7 63 25 14 32 -4 77 -31 77 -42 0 -38 74 5 90
23 9 25 14 25 77 0 71 -10 100 -29 89 -6 -4 -16 3 -22 17 -15 34 1 82 27 82
16 0 19 9 22 65 4 83 -2 104 -33 118 -40 18 -33 67 13 91 19 10 22 20 22 76 0
59 -2 65 -30 85 -44 31 -41 83 6 108 18 9 22 21 23 72 1 68 -9 95 -39 105 -29
9 -27 60 3 76 33 18 37 28 37 97 0 57 -2 63 -24 72 -51 19 -60 72 -17 95 16 8
32 24 36 35 8 25 -12 134 -25 138 -40 14 -54 76 -20 87 31 10 38 34 33 112 -5
68 -7 72 -34 82 -23 8 -29 16 -29 40 0 23 6 31 29 39 27 10 29 15 36 80 7 73
-3 112 -30 112 -15 0 -35 30 -35 53 0 8 13 20 29 25 23 8 30 18 36 50 11 68
-3 127 -36 151 -38 28 -38 56 1 70 33 11 33 13 30 111 -1 59 -4 67 -31 90 -37
32 -37 51 1 72 31 18 37 39 32 128 -4 61 -11 78 -34 82 -36 5 -35 38 3 68 30
25 32 32 32 86 0 66 -13 100 -44 109 -30 10 -22 57 11 65 24 6 25 9 28 92 l3
87 -31 16 c-40 21 -41 59 -2 77 26 13 27 15 27 98 0 82 -1 84 -25 90 -19 4
-26 13 -28 37 -3 25 1 33 20 38 33 11 38 22 38 98 0 77 -11 107 -40 107 -16 0
-20 7 -20 35 0 31 3 35 25 35 31 0 37 22 33 115 -3 64 -5 70 -28 75 -20 5 -26
13 -28 43 -3 32 0 37 17 37 30 0 41 30 41 107 0 75 -5 89 -35 94 -14 3 -21 13
-23 37 -3 27 0 32 17 32 29 0 41 30 41 105 0 75 -12 105 -40 105 -34 0 -26 51
10 72 29 17 30 19 30 92 0 76 -13 106 -46 106 -25 0 -17 49 10 59 31 12 36 29
36 111 0 65 -1 70 -27 82 -38 18 -40 69 -3 78 24 6 25 9 28 93 l3 88 -31 10
c-25 9 -30 16 -30 45 0 30 3 34 25 34 31 0 37 22 33 115 -3 68 -4 70 -31 73
-26 3 -28 7 -25 40 2 29 8 37 28 42 24 6 25 9 28 93 l3 87 -31 6 c-26 6 -30
11 -30 39 0 27 5 35 29 43 33 12 39 40 31 132 -4 48 -8 55 -30 60 -20 5 -26
13 -28 42 -3 33 -1 37 25 40 l28 3 0 90 c0 87 -1 89 -25 95 -20 5 -26 13 -28
43 -3 33 -1 37 21 37 32 0 37 15 37 106 0 74 0 75 -30 85 -25 9 -30 16 -30 45
0 26 4 34 18 34 33 0 42 22 42 98 0 81 -11 112 -40 112 -33 0 -27 56 8 72 25
12 27 18 30 85 3 80 -8 113 -38 113 -34 0 -26 51 10 72 29 17 30 19 30 92 0
91 -5 106 -36 106 -20 0 -24 5 -24 29 0 23 7 33 28 43 25 12 27 18 30 83 4 89
-2 113 -31 117 -15 2 -23 11 -25 30 -3 21 3 29 25 40 26 12 28 18 31 83 4 89
-2 113 -31 117 -36 5 -35 49 3 70 l31 18 -3 82 c-3 79 -4 83 -30 96 -35 17
-37 49 -3 64 31 14 37 34 33 123 -3 65 -5 71 -31 83 -23 11 -28 19 -25 45 2
24 9 33 28 37 23 5 25 11 28 75 4 93 -2 115 -33 115 -22 0 -25 4 -25 36 0 30
4 37 30 45 30 11 30 11 30 87 0 84 -5 98 -35 103 -13 3 -21 13 -23 30 -3 22 2
29 28 37 l31 11 -3 88 c-3 85 -4 88 -30 101 -37 17 -39 57 -3 66 32 8 48 65
37 137 -6 45 -12 56 -35 67 -35 17 -36 49 -2 62 34 13 44 45 38 119 -5 53 -10
64 -34 82 -37 26 -38 56 -3 65 34 9 42 35 36 117 -4 65 -5 68 -33 74 -24 5
-29 11 -29 35 0 24 6 32 35 44 41 17 53 50 35 94 -9 22 -19 30 -43 32 -31 3
-32 4 -32 56 -1 35 -6 56 -15 62 -17 11 -172 13 -207 4 -16 -4 -23 -14 -23
-30 0 -44 -80 -47 -90 -4 -6 24 -9 25 -92 28 -82 3 -88 1 -99 -20 -25 -48 -62
-51 -84 -8 -15 30 -17 30 -95 30 -72 0 -80 -2 -80 -19 0 -47 -79 -57 -90 -11
-6 24 -9 25 -93 28 -84 3 -88 2 -96 -21 -18 -46 -64 -49 -86 -7 -15 29 -17 30
-90 30 -71 0 -74 -1 -87 -27 -22 -46 -88 -40 -88 9 0 17 -7 19 -87 16 -83 -3
-88 -4 -91 -26 -6 -44 -70 -42 -90 3 -10 21 -18 25 -54 25 -67 0 -113 -17
-126 -45 -13 -27 -49 -34 -58 -11 -3 8 4 24 15 35 27 27 27 69 0 97 l-21 23
21 13 c17 10 21 23 21 62 0 32 -6 56 -16 68 -16 16 -16 18 0 24 22 9 23 106 0
125 -14 11 -14 13 0 21 24 13 22 116 -1 134 -17 12 -17 14 1 27 23 17 28 92 7
130 -12 22 -12 28 3 42 20 20 21 80 2 117 -12 23 -12 29 0 39 22 18 18 94 -7
118 l-21 19 21 11 c28 15 29 78 2 113 -19 24 -19 24 0 36 27 17 27 105 0 124
-20 14 -20 14 0 26 25 16 26 89 2 123 -10 13 -23 33 -29 44 -11 19 -22 20
-220 21 l-209 0 -10 37 c-6 20 -19 42 -29 50 -16 12 -17 16 -5 34 17 28 -3 98
-32 114 -19 10 -20 12 -4 29 14 15 15 25 5 59 -6 22 -20 47 -32 55 -18 13 -19
18 -8 31 15 18 8 79 -12 102 -7 9 -13 41 -14 71 0 50 -3 57 -35 82 -32 27 -33
29 -16 47 9 11 17 30 17 42 0 29 -26 78 -47 90 -15 8 -16 14 -5 43 14 41 3 91
-28 116 -18 15 -19 19 -7 36 21 28 2 95 -29 107 -28 10 -30 24 -8 46 25 25 1
103 -32 103 -18 0 -18 15 0 43 19 31 3 84 -29 99 -29 13 -30 16 -9 46 13 19
13 27 2 58 -7 20 -21 40 -30 45 -22 12 -23 32 -3 49 18 15 20 81 3 98 -9 9 -9
15 0 24 7 7 12 31 12 54 0 33 -4 44 -19 49 -11 3 -24 19 -30 35 -9 28 -13 30
-62 30 -35 0 -59 -6 -71 -17 -17 -15 -18 -15 -18 0 0 25 -115 24 -129 0 -9
-17 -11 -17 -24 1 -11 15 -22 17 -68 12 -30 -3 -61 -5 -69 -4 -8 0 -43 1 -77
1 l-63 1 0 32 c0 97 -93 149 -153 86z m96 -52 c13 -21 16 -40 12 -63 -13 -66
-9 -67 314 -67 l288 0 6 -63 c9 -99 6 -104 -61 -103 -53 1 -57 -1 -61 -24 l-4
-25 -6 25 c-6 23 -11 25 -71 25 -60 0 -65 -2 -71 -25 l-7 -25 -1 28 -1 27
-102 2 c-123 2 -127 2 -155 -7 -21 -7 -23 -4 -23 37 0 93 -97 143 -155 81 -16
-18 -25 -39 -25 -60 0 -55 -5 -58 -70 -55 -55 3 -60 2 -60 -17 0 -28 -18 -36
-22 -9 -3 21 -8 23 -68 23 -56 0 -65 -2 -62 -17 4 -25 -14 -23 -21 2 -4 17
-14 20 -62 20 -50 0 -58 -3 -63 -22 l-5 -22 -9 24 c-8 21 -12 22 -68 16 l-60
-7 0 85 0 86 303 2 302 3 0 56 c0 90 52 131 88 69z m1465 -2189 l2 -161 -1059
0 c-583 0 -1065 2 -1073 5 -10 4 -13 39 -12 153 0 82 3 153 6 158 4 5 429 8
1070 7 l1063 -2 3 -160z m-2318 -916 c3 -160 8 -295 13 -302 4 -6 3 -21 -1
-34 -5 -14 -4 -34 2 -52 10 -25 8 -30 -14 -48 -24 -18 -24 -20 -6 -33 28 -23
11 -35 -29 -22 -56 20 -62 32 -25 51 27 14 31 20 25 42 -3 14 -1 31 5 39 15
17 4 34 -21 34 -10 0 -19 5 -19 11 0 14 -86 4 -106 -12 -7 -6 -14 -29 -16 -52
l-3 -42 -75 0 c-69 0 -75 -2 -78 -21 -5 -34 -72 -42 -72 -9 0 29 -29 43 -93
43 -71 1 -83 -4 -88 -33 -3 -15 -13 -21 -42 -23 -32 -3 -37 0 -37 18 0 27 -36
40 -111 40 -68 0 -99 -12 -99 -39 0 -23 -23 -33 -56 -25 -17 4 -24 13 -24 29
0 14 -7 26 -17 29 -15 4 -85 3 -145 -3 -9 0 -18 -11 -20 -22 -7 -49 -69 -50
-76 -1 -4 24 -28 32 -100 32 -62 0 -92 -13 -92 -39 0 -12 -10 -21 -25 -25 -26
-7 -69 9 -61 22 12 20 -16 36 -66 37 -82 3 -118 -5 -118 -25 0 -47 -73 -51
-84 -5 -6 24 -9 25 -91 25 -82 0 -84 -1 -97 -27 -9 -19 -22 -29 -40 -31 -24
-3 -28 1 -38 37 -6 23 -10 47 -8 54 3 20 -12 57 -25 58 -132 13 -150 4 -145
-75 3 -49 4 -51 32 -51 34 0 44 -16 21 -35 -14 -11 -21 -11 -45 3 -15 9 -35
17 -43 17 -9 0 -17 10 -19 23 -3 20 -9 22 -84 25 l-82 3 -10 -31 c-8 -22 -17
-30 -34 -30 -28 0 -48 17 -48 41 0 20 -28 29 -92 29 -63 0 -98 -14 -98 -40 0
-41 -76 -39 -82 3 -3 21 -8 22 -83 22 -72 0 -80 -2 -84 -20 -9 -48 -64 -48
-93 1 -20 34 -21 47 -19 371 0 185 3 339 6 341 3 3 510 7 1127 9 617 2 1122 4
1124 6 1 1 186 2 411 2 l408 -1 5 -289z m-70 -335 c0 -4 -6 -13 -13 -19 -16
-13 -54 10 -44 26 7 11 57 5 57 -7z m2314 14 c23 -9 20 -31 -5 -39 -25 -8 -44
7 -36 29 7 17 16 19 41 10z m-1263 -19 c0 -5 -9 -11 -21 -13 -20 -3 -27 8 -13
22 10 9 34 3 34 -9z m519 0 c0 -10 -10 -15 -30 -15 -20 0 -30 5 -30 15 0 10
10 15 30 15 20 0 30 -5 30 -15z m-3602 -26 c-2 -6 -7 -10 -11 -10 -4 1 -16 1
-28 1 -11 0 -17 5 -14 10 8 14 58 13 53 -1z m2461 -5 c2 -2 -12 -4 -33 -4 -22
0 -35 4 -31 10 5 9 52 4 64 -6z m-229 -59 c26 -31 -9 -62 -55 -51 -51 13 -39
66 15 66 15 0 33 -7 40 -15z m-242 -22 c2 -7 -8 -18 -23 -25 -21 -10 -29 -9
-43 6 -15 15 -15 18 -2 26 20 13 62 8 68 -7z m1146 1 c4 -9 1 -23 -5 -31 -11
-12 -14 -12 -27 1 -17 17 -10 46 12 46 7 0 17 -7 20 -16z m504 -12 c4 -24 -9
-28 -39 -12 -24 13 -25 27 -1 33 27 7 37 2 40 -21z m-8942 -12 c1 -52 1 -51
67 -48 61 3 62 4 65 33 5 36 16 45 64 45 53 0 68 -8 68 -40 0 -37 20 -51 66
-49 59 3 77 16 72 50 -4 26 -1 29 27 35 56 10 80 2 83 -28 5 -40 24 -49 89
-46 58 3 58 3 63 38 l5 35 55 0 55 0 5 -35 c5 -33 7 -35 58 -43 61 -10 89 5
94 52 3 23 7 26 43 26 38 0 40 -1 43 -35 4 -42 15 -50 68 -50 50 0 79 19 72
48 -7 26 13 45 44 40 19 -2 24 -11 28 -43 l5 -40 165 -1 c95 -1 170 3 178 9 6
5 12 22 12 38 0 36 5 38 63 32 40 -5 47 -9 47 -27 0 -43 21 -57 80 -54 53 3
55 4 66 38 14 44 48 59 90 39 20 -10 30 -24 34 -44 5 -28 8 -30 58 -33 62 -4
82 8 82 49 0 29 0 29 65 29 65 0 65 0 65 -28 0 -40 17 -52 76 -52 55 0 64 8
64 55 0 15 7 25 23 29 62 17 102 -3 109 -54 l3 -25 155 0 c151 0 155 1 158 21
6 40 35 56 86 49 35 -6 46 -12 46 -25 0 -45 9 -50 86 -50 66 0 74 2 74 19 0
41 11 51 54 51 47 0 66 -13 66 -47 0 -23 2 -24 83 -21 79 3 82 4 85 28 6 40
21 50 73 50 45 0 49 -2 55 -27 3 -16 7 -34 10 -40 2 -9 26 -13 74 -13 66 0 70
1 70 23 0 39 14 48 66 45 47 -3 49 -4 52 -35 l3 -33 160 0 c139 0 160 -2 166
-16 4 -11 -1 -22 -12 -31 -19 -13 -21 -29 -17 -123 1 -19 1 -56 1 -82 0 -27 0
-56 1 -65 0 -10 -2 -42 -6 -70 -4 -35 -3 -58 5 -67 8 -10 8 -21 1 -40 -13 -36
-13 -99 1 -113 8 -8 7 -17 -1 -34 -8 -14 -11 -44 -7 -81 5 -58 5 -58 -22 -58
-14 0 -37 -7 -49 -16 -12 -8 -27 -14 -33 -12 -7 2 -10 122 -9 350 l0 347 -22
15 c-20 14 -96 16 -655 16 -615 0 -633 -1 -643 -19 -6 -13 -10 -145 -10 -361
0 -216 4 -348 10 -361 10 -18 28 -19 650 -19 l640 0 0 -31 c0 -17 8 -44 17
-60 14 -23 26 -30 65 -35 27 -4 51 -11 55 -17 3 -5 5 -56 5 -113 -1 -57 3
-106 8 -109 6 -4 4 -15 -6 -30 -12 -19 -13 -33 -6 -77 6 -32 7 -60 1 -70 -11
-20 -3 -97 13 -115 8 -10 7 -18 -6 -31 -25 -28 -21 -88 9 -117 l24 -25 -64 0
c-57 0 -67 -3 -90 -27 -37 -41 -35 -93 6 -128 18 -14 45 -29 60 -32 27 -5 29
-8 29 -56 0 -33 6 -57 16 -69 16 -16 16 -18 0 -24 -24 -9 -23 -109 2 -123 16
-10 16 -12 0 -25 -24 -18 -25 -102 -2 -128 16 -16 16 -18 0 -24 -20 -7 -23
-103 -4 -122 9 -9 9 -15 0 -24 -18 -18 -16 -127 3 -135 14 -5 14 -7 -1 -24
-12 -13 -15 -31 -11 -71 2 -29 8 -63 11 -74 7 -19 3 -22 -42 -26 -58 -6 -92
-34 -92 -77 0 -33 -16 -49 -33 -32 -8 8 -190 11 -634 11 -603 0 -623 -1 -633
-19 -6 -12 -10 -191 -11 -490 -1 -439 0 -473 16 -491 18 -19 34 -20 645 -20
525 0 629 2 639 14 9 10 12 144 12 490 0 262 2 476 5 476 3 0 20 -11 38 -25
19 -14 46 -25 64 -25 34 0 52 -17 28 -26 -23 -9 -23 -119 1 -128 14 -6 13 -9
-7 -28 -19 -18 -21 -27 -16 -66 3 -25 11 -51 16 -58 8 -8 8 -14 0 -19 -14 -9
-13 -118 2 -133 10 -10 10 -15 -1 -22 -23 -14 -21 -109 2 -122 18 -9 18 -11
-3 -30 -19 -18 -21 -28 -16 -67 3 -25 10 -49 15 -54 6 -6 4 -16 -5 -25 -11
-11 -14 -25 -9 -51 4 -20 8 -36 8 -36 1 0 16 -10 34 -23 38 -26 56 -28 78 -6
15 15 17 15 34 0 23 -21 104 -22 121 -1 7 8 18 15 25 15 7 0 18 -7 25 -15 20
-24 89 -19 118 8 l24 22 15 -22 c20 -30 80 -31 115 -4 24 20 25 20 42 -1 15
-17 25 -19 62 -14 47 6 46 6 58 -44 11 -45 39 -71 84 -77 23 -3 42 -10 42 -14
0 -5 -5 -9 -12 -9 -6 0 -20 -7 -30 -17 -16 -15 -18 -36 -18 -259 0 -133 4
-254 10 -268 l10 -26 314 0 c215 0 317 3 322 11 3 6 7 132 7 281 2 256 1 271
-18 284 -21 15 -201 22 -437 16 -121 -3 -128 -3 -128 16 0 11 7 25 15 32 9 8
15 29 15 56 0 51 14 63 42 37 26 -23 111 -23 138 2 16 15 19 15 27 1 13 -23
102 -25 118 -3 15 21 25 21 39 2 18 -24 102 -26 122 -4 15 17 20 18 39 5 12
-8 32 -16 45 -18 18 -2 26 -11 30 -33 10 -46 38 -83 69 -90 59 -13 106 29 119
108 8 45 37 63 54 33 12 -22 106 -23 114 -1 4 8 14 15 24 15 10 0 23 -7 30
-15 8 -9 29 -15 55 -15 29 0 45 5 49 15 3 8 15 15 26 15 11 0 23 -7 26 -15 8
-20 78 -20 110 1 23 15 26 15 44 -1 14 -12 32 -16 67 -13 l48 3 5 -40 c9 -71
49 -103 110 -90 35 8 70 62 70 110 0 39 12 51 30 30 16 -20 79 -20 86 0 4 8
12 15 19 15 7 0 18 -7 25 -15 8 -9 30 -15 60 -15 33 0 50 5 54 15 3 8 15 15
26 15 11 0 23 -7 26 -15 9 -23 85 -20 117 5 l26 21 11 -21 c16 -30 95 -29 120
2 l17 22 14 -22 c11 -18 23 -22 60 -22 29 0 51 6 59 15 7 8 19 15 27 15 8 0
21 -7 29 -15 9 -8 32 -15 53 -15 30 0 43 7 69 36 18 20 35 48 39 63 3 14 13
36 21 49 19 30 11 111 -13 124 -15 9 -15 11 4 25 26 18 29 93 5 118 -15 15
-15 17 0 34 20 22 21 90 2 116 -11 16 -11 21 0 33 8 8 14 34 14 63 0 37 -4 52
-19 61 -20 12 -20 12 0 26 24 16 26 87 4 119 -13 19 -13 21 8 27 12 3 33 6 47
6 14 0 36 10 50 21 20 17 25 30 25 69 0 39 -5 52 -25 69 -14 11 -37 20 -52 21
-47 0 -58 9 -47 37 5 13 9 42 9 63 0 30 -5 42 -22 51 l-22 12 22 15 c18 12 22
24 22 68 0 38 -5 56 -16 62 -14 8 -14 10 0 21 23 19 22 117 -1 129 -16 9 -16
11 0 27 11 11 17 33 17 65 0 41 -3 50 -21 55 l-21 7 21 22 c27 29 30 110 4
125 -17 9 -17 11 1 30 14 16 17 32 15 82 l-4 62 47 14 c53 15 78 43 78 89 0
41 -30 74 -74 81 -41 6 -53 22 -54 71 0 18 -5 39 -11 45 -6 8 -5 18 5 31 17
23 18 64 4 102 -8 19 -8 30 0 38 13 13 13 77 0 112 -8 19 -8 30 0 38 13 13 13
82 -1 108 -8 15 -8 26 1 44 8 14 11 41 7 73 l-6 49 37 7 c54 10 72 23 88 60
15 38 9 95 -11 95 -7 0 -18 7 -25 15 -7 9 -29 15 -54 15 l-42 0 4 66 c3 40 0
70 -7 77 -6 6 -7 15 -2 21 18 23 21 81 6 110 -14 26 -14 31 0 46 18 20 19 67
1 99 -12 21 -12 28 1 48 11 16 13 35 9 60 -4 21 -7 49 -7 63 0 14 1 45 1 69 0
26 -6 51 -15 61 -18 20 -10 50 14 50 9 1 61 2 116 3 l100 2 5 35 c5 34 7 35
52 38 45 3 48 1 54 -25 3 -15 7 -34 10 -40 2 -9 26 -13 73 -13 69 0 71 1 77
28 11 51 12 52 58 52 42 0 46 -2 52 -27 3 -16 7 -34 10 -40 2 -10 41 -13 149
-13 l145 0 0 24 c0 46 10 56 54 56 49 0 66 -13 66 -51 l0 -28 203 -3 c111 -2
210 1 220 5 9 4 17 18 17 30 0 33 19 47 61 47 43 0 69 -21 69 -56 0 -23 2 -24
74 -24 l75 0 3 38 3 37 52 3 53 3 6 -40 6 -40 167 -3 c176 -3 206 2 196 31 -8
27 18 43 66 39 39 -3 44 -6 51 -35 5 -18 14 -34 21 -35 89 -11 127 -4 127 25
0 39 14 48 66 45 45 -3 49 -5 54 -32 6 -36 43 -51 106 -41 40 6 44 9 44 34 0
38 13 47 65 43 42 -4 45 -6 45 -33 0 -35 21 -47 80 -44 61 3 60 3 60 25 0 33
35 60 80 60 42 0 60 -18 60 -59 0 -12 3 -21 8 -22 4 0 25 -2 47 -4 63 -5 84 3
93 39 8 29 11 31 58 31 46 0 49 -1 54 -30 5 -26 10 -30 52 -37 60 -10 98 3 98
35 0 35 16 45 68 39 50 -5 62 -14 62 -48 0 -18 8 -22 49 -28 71 -9 101 5 101
49 0 35 0 35 44 35 41 0 45 -2 51 -30 7 -33 1 -50 -20 -50 -7 0 -21 -7 -29
-16 -19 -19 -22 -99 -3 -114 6 -5 22 -18 33 -28 17 -14 21 -25 17 -58 -4 -37
-8 -43 -34 -48 -30 -6 -30 -6 -27 -68 3 -54 6 -64 27 -74 33 -17 39 -29 32
-70 -4 -24 -14 -39 -31 -47 -23 -11 -25 -18 -25 -77 0 -60 2 -64 25 -70 22 -5
25 -12 28 -52 3 -43 1 -48 -27 -63 -30 -15 -31 -18 -31 -81 0 -64 0 -65 30
-71 30 -6 31 -7 28 -56 -3 -45 -6 -52 -28 -57 -23 -5 -25 -10 -28 -78 l-3 -72
31 -6 c28 -6 30 -9 30 -55 0 -42 -3 -49 -27 -61 -27 -13 -28 -17 -28 -83 0
-65 1 -69 25 -75 23 -5 25 -11 28 -63 3 -56 2 -58 -28 -68 l-31 -11 3 -72 c3
-66 5 -72 31 -84 23 -11 27 -19 27 -57 0 -40 -2 -44 -30 -50 l-31 -7 3 -71 c3
-67 5 -72 28 -77 22 -5 25 -11 25 -55 0 -44 -3 -50 -25 -55 -23 -5 -25 -11
-28 -74 -3 -67 -3 -67 28 -79 29 -11 31 -14 28 -61 -3 -44 -6 -51 -28 -56 -24
-6 -25 -9 -25 -80 0 -71 1 -74 25 -80 22 -5 25 -11 25 -55 0 -44 -3 -50 -25
-55 -24 -6 -25 -9 -25 -80 0 -71 1 -74 25 -80 22 -5 25 -12 28 -58 3 -51 2
-52 -28 -58 l-31 -7 3 -71 c3 -62 6 -71 23 -74 34 -7 40 -19 37 -66 -4 -40 -7
-45 -30 -48 -26 -3 -27 -6 -30 -71 -3 -67 -3 -68 28 -78 28 -10 30 -14 30 -64
0 -51 -1 -54 -27 -57 -28 -3 -28 -4 -28 -78 0 -67 2 -75 20 -78 34 -7 40 -19
37 -65 -3 -40 -7 -45 -33 -51 -28 -5 -29 -7 -29 -71 0 -64 1 -66 30 -76 26
-10 30 -16 30 -49 0 -33 -5 -41 -27 -52 -26 -12 -28 -18 -31 -86 l-3 -73 36
-14 c33 -14 35 -18 35 -61 0 -42 -2 -46 -35 -60 l-36 -15 3 -67 c3 -60 5 -67
25 -70 32 -5 40 -22 35 -70 -3 -35 -10 -45 -33 -58 -27 -14 -29 -18 -29 -74 0
-59 1 -60 34 -74 32 -13 34 -17 32 -54 -4 -49 -12 -62 -36 -62 -24 0 -32 -29
-28 -95 3 -46 5 -49 37 -57 28 -8 32 -13 27 -31 -3 -12 -6 -34 -6 -49 0 -20
-7 -28 -30 -37 -31 -10 -31 -11 -28 -78 3 -62 5 -68 28 -73 22 -5 25 -12 28
-52 3 -43 1 -48 -27 -63 -27 -13 -31 -21 -31 -55 0 -57 14 -85 50 -100 18 -8
29 -18 26 -26 -3 -7 -8 -29 -12 -48 -4 -24 -12 -36 -23 -36 -29 0 -41 -22 -41
-77 0 -51 2 -55 36 -75 22 -13 33 -26 30 -35 -3 -8 -6 -30 -6 -48 0 -28 -5
-35 -30 -44 -29 -10 -30 -12 -30 -76 0 -54 3 -67 18 -71 41 -13 47 -21 46 -65
0 -37 -5 -46 -30 -59 -27 -16 -29 -20 -29 -81 0 -60 2 -65 28 -77 23 -11 27
-19 27 -58 0 -38 -4 -46 -24 -54 -25 -9 -40 -47 -30 -74 8 -21 43 -20 51 2 3
9 16 26 30 38 23 20 24 23 14 99 -6 53 -15 81 -25 87 -22 12 -20 51 4 73 17
15 19 30 19 106 0 78 -3 89 -20 94 -28 9 -25 62 5 90 23 22 25 28 19 97 -4 51
-11 79 -24 94 -26 28 -24 59 6 78 24 16 25 21 23 93 -1 63 -5 80 -25 103 -28
34 -29 56 -3 70 17 9 20 21 20 89 0 65 -3 81 -20 96 -28 26 -26 69 5 89 24 16
25 20 19 89 -5 54 -11 75 -25 86 -27 19 -24 63 5 89 23 20 25 26 19 94 -4 56
-10 76 -24 87 -26 19 -24 57 5 82 23 20 24 25 18 102 -4 64 -9 85 -24 95 -24
17 -24 70 0 79 26 10 32 23 32 78 0 66 -15 114 -40 132 -27 19 -25 49 5 77 23
21 24 27 18 94 -3 42 -12 77 -19 83 -22 18 -17 67 6 79 19 10 21 19 18 88 -2
63 -6 82 -25 105 -29 36 -29 53 2 73 23 15 25 22 25 99 0 69 -3 85 -20 100
-26 23 -26 61 0 75 18 10 20 20 19 90 -2 63 -6 84 -21 97 -25 22 -24 69 2 83
18 10 20 20 19 90 -1 57 -5 83 -16 92 -8 7 -19 23 -24 37 -8 20 -5 29 17 52
24 25 27 35 25 95 -1 55 -6 72 -26 96 -31 37 -31 49 0 77 24 20 26 26 22 99
-3 64 -7 82 -25 100 -30 30 -28 60 3 72 27 10 27 13 25 105 -1 49 -6 65 -26
86 -31 33 -31 63 1 77 24 11 25 16 25 92 0 76 -1 81 -25 92 -20 9 -24 17 -20
42 2 17 4 34 4 39 1 4 7 7 15 7 24 0 29 18 27 99 -1 59 -6 82 -21 103 -25 34
-25 60 0 83 17 15 19 29 18 98 -2 76 -13 107 -39 107 -5 0 -9 13 -9 29 0 20 8
34 26 46 26 17 27 19 21 97 -4 66 -9 82 -26 95 -27 18 -26 25 4 61 21 25 25
40 25 93 0 81 -7 107 -31 114 -27 9 -23 36 8 61 26 21 27 26 24 95 -2 60 -7
78 -27 102 -29 35 -31 54 -3 62 27 9 39 44 39 113 0 51 -3 60 -29 83 -33 29
-33 64 0 74 15 5 19 16 19 48 0 50 12 72 33 64 11 -4 17 -22 19 -59 3 -46 6
-53 28 -58 16 -4 25 -13 25 -25 0 -12 -9 -21 -25 -25 -24 -6 -25 -10 -25 -75
0 -65 1 -69 25 -75 22 -5 25 -11 25 -55 0 -44 -3 -50 -25 -55 -23 -5 -25 -11
-28 -72 -3 -66 -2 -67 28 -83 24 -13 30 -22 30 -49 0 -50 -9 -66 -36 -66 -23
0 -24 -3 -24 -64 0 -61 2 -66 28 -78 24 -12 27 -19 27 -63 0 -44 -2 -50 -25
-55 -30 -7 -46 -58 -36 -113 6 -30 11 -37 30 -37 26 0 36 -17 36 -60 0 -41
-10 -60 -31 -60 -24 0 -39 -29 -39 -77 0 -44 15 -70 45 -75 17 -3 20 -11 20
-53 0 -44 -3 -50 -25 -55 -24 -6 -25 -9 -25 -80 0 -70 1 -75 22 -78 42 -6 46
-104 5 -110 -30 -4 -39 -33 -34 -104 3 -48 7 -58 22 -58 28 0 41 -25 38 -71
-3 -37 -7 -44 -28 -49 -24 -6 -25 -9 -25 -75 0 -65 2 -70 22 -73 45 -7 45 -99
1 -120 -16 -7 -29 -18 -29 -25 -9 -86 1 -127 30 -127 22 0 31 -19 31 -64 0
-35 -15 -56 -41 -56 -19 0 -29 -28 -29 -85 0 -47 14 -65 48 -65 22 0 23 -3 20
-52 -3 -47 -6 -53 -26 -56 -30 -5 -40 -35 -33 -102 5 -44 10 -56 26 -59 26 -4
35 -19 35 -58 0 -44 -9 -63 -30 -63 -25 0 -33 -16 -36 -69 -4 -52 9 -81 35
-81 21 0 31 -19 31 -60 0 -43 -10 -60 -35 -60 -15 0 -25 -8 -29 -22 -16 -63 2
-145 31 -134 21 8 33 -10 33 -52 0 -43 -16 -72 -39 -72 -26 0 -33 -24 -25 -91
6 -52 9 -59 35 -68 24 -8 29 -15 29 -45 0 -49 -9 -66 -35 -66 -28 0 -35 -17
-35 -79 0 -49 14 -70 53 -84 27 -10 20 -100 -8 -105 -29 -5 -45 -31 -45 -73 0
-54 15 -87 42 -91 21 -3 23 -8 23 -58 0 -52 -1 -55 -27 -58 -24 -3 -26 -8 -30
-55 -5 -66 5 -95 34 -99 21 -3 23 -8 23 -58 0 -51 -2 -55 -25 -59 -32 -4 -40
-17 -40 -63 0 -53 15 -86 42 -90 20 -3 23 -10 26 -51 3 -38 0 -48 -15 -53 -42
-13 -48 -22 -50 -68 -3 -61 10 -94 39 -98 17 -2 24 -11 26 -32 5 -44 -6 -76
-27 -76 -32 0 -42 -23 -36 -86 6 -64 10 -70 40 -76 15 -2 21 -12 23 -42 4 -41
-8 -61 -36 -61 -14 0 -18 -12 -20 -67 -3 -64 -2 -67 25 -80 19 -9 29 -22 31
-42 5 -45 -6 -76 -28 -76 -28 0 -37 -28 -31 -95 5 -49 9 -60 26 -64 25 -4 35
-19 35 -54 0 -38 -17 -67 -39 -67 -23 0 -31 -19 -31 -71 0 -50 15 -79 39 -79
21 0 31 -19 31 -60 0 -43 -10 -60 -35 -60 -26 0 -35 -17 -35 -68 0 -59 10 -80
41 -91 23 -8 29 -16 29 -38 0 -51 -11 -73 -35 -73 -27 0 -35 -17 -35 -70 0
-55 15 -88 42 -92 20 -3 23 -10 26 -51 3 -38 0 -48 -15 -53 -45 -14 -48 -19
-46 -85 3 -67 7 -75 38 -81 36 -6 32 -108 -4 -108 -26 0 -38 -20 -35 -60 1
-19 3 -45 3 -57 1 -14 11 -27 29 -35 44 -21 44 -113 -1 -120 -20 -3 -22 -9
-25 -71 l-3 -68 31 -11 c29 -10 31 -13 28 -51 -2 -32 -8 -44 -27 -54 -34 -16
-39 -30 -32 -93 5 -44 10 -56 26 -59 27 -5 35 -19 35 -66 0 -47 -8 -61 -35
-66 -17 -4 -20 -13 -23 -72 -3 -68 -3 -68 28 -79 30 -10 31 -12 28 -61 -3 -45
-6 -52 -28 -57 -24 -6 -25 -9 -25 -80 0 -71 1 -74 25 -80 18 -4 26 -13 28 -34
6 -46 -6 -74 -31 -78 -21 -3 -22 -8 -22 -78 0 -71 1 -74 25 -80 22 -5 25 -11
25 -55 0 -44 -3 -50 -25 -55 -24 -6 -25 -9 -25 -80 0 -71 1 -74 25 -80 23 -5
25 -11 25 -60 0 -53 -1 -55 -28 -58 l-28 -3 3 -72 c3 -66 5 -72 28 -77 18 -4
26 -15 31 -40 9 -42 -3 -68 -33 -72 -21 -3 -23 -9 -26 -71 -3 -67 -3 -68 28
-78 16 -6 31 -14 31 -17 11 -56 4 -78 -32 -96 -22 -10 -24 -18 -24 -76 0 -60
2 -64 25 -70 23 -5 25 -11 25 -60 0 -50 -2 -56 -27 -68 -26 -12 -28 -17 -28
-75 0 -60 1 -62 33 -77 27 -12 33 -21 35 -53 3 -35 1 -39 -33 -53 l-36 -15 3
-67 c3 -58 6 -67 23 -70 33 -6 55 -33 55 -66 0 -26 -7 -35 -38 -51 -36 -19
-37 -22 -40 -83 -3 -58 -1 -63 21 -71 37 -14 57 -40 57 -72 0 -23 -5 -30 -27
-35 -55 -12 -54 -10 -51 -81 l3 -68 38 -3 c56 -5 41 -26 -21 -30 -31 -2 -52
-8 -53 -15 -1 -7 -2 -23 -2 -37 -2 -19 -9 -26 -37 -31 -50 -11 -82 -1 -75 22
9 28 -28 59 -73 59 -47 0 -80 -22 -84 -58 -3 -26 -5 -27 -58 -27 -53 0 -55 1
-58 28 -4 31 -32 47 -86 47 -40 0 -64 -17 -68 -50 -3 -23 -6 -25 -47 -22 -97
8 -126 66 -152 302 -11 105 -34 166 -79 210 -16 15 -76 51 -134 80 -105 51
-146 87 -146 127 0 10 19 52 43 93 24 41 49 94 57 117 20 63 -3 108 -83 160
-34 23 -71 52 -82 65 -39 45 -98 138 -92 144 3 3 233 5 511 4 345 0 512 3 526
10 19 10 20 20 20 298 0 158 -4 292 -8 298 -5 9 -176 13 -616 16 -528 4 -610
3 -623 -10 -12 -13 -14 -52 -11 -243 3 -223 2 -228 -20 -258 -12 -17 -22 -39
-22 -50 0 -11 -5 -32 -11 -48 -11 -27 -25 -82 -49 -188 -6 -27 -16 -66 -22
-86 -11 -39 -9 -65 17 -209 27 -145 34 -280 18 -308 -17 -28 -37 -24 -42 9 -4
32 -17 39 -71 39 -48 0 -74 -11 -76 -32 -1 -7 -2 -19 -3 -26 -1 -9 -17 -12
-58 -10 -53 3 -58 5 -62 28 -4 33 -17 40 -73 40 -61 0 -78 -7 -78 -35 0 -13
-5 -27 -12 -31 -9 -6 -55 -8 -98 -5 -5 1 -10 12 -10 26 0 29 -26 45 -75 45
-49 0 -75 -16 -75 -45 0 -32 -29 -38 -112 -26 -5 1 -8 12 -8 26 0 29 -26 45
-72 45 -57 0 -77 -10 -80 -38 -3 -24 -9 -28 -53 -34 -53 -7 -65 -1 -65 38 0
23 -23 34 -75 34 -52 0 -75 -11 -75 -34 0 -36 -16 -49 -59 -49 -46 0 -68 14
-73 46 -3 20 -10 22 -70 25 -65 3 -68 2 -68 -20 0 -38 -15 -51 -61 -52 -42 -1
-44 1 -55 34 l-12 35 -71 3 c-68 3 -71 2 -71 -20 0 -37 -15 -50 -61 -53 -54
-4 -77 8 -81 42 -3 27 -5 28 -68 28 -62 0 -65 -1 -68 -25 -6 -38 -21 -50 -61
-50 -44 1 -68 17 -73 50 -3 22 -9 25 -53 28 -55 4 -75 15 -75 43 0 29 -21 34
-40 9 -11 -15 -23 -21 -34 -17 -23 9 -20 28 6 35 22 5 21 6 -6 13 -40 11 -76
-14 -76 -52 l0 -29 -70 0 c-68 0 -76 -4 -71 -34 4 -19 -24 -36 -58 -36 -42 0
-61 14 -61 46 0 28 -17 34 -75 28 -58 -5 -65 -9 -65 -39 0 -30 -4 -32 -70 -36
l-55 -4 -9 38 -10 38 -64 -3 c-64 -3 -65 -3 -76 -38 -9 -28 -17 -36 -40 -38
-53 -6 -73 5 -80 43 l-7 36 -61 -3 c-46 -2 -63 -7 -69 -20 -5 -10 -13 -26 -18
-35 -6 -13 -22 -19 -59 -21 -49 -3 -52 -2 -58 25 -3 15 -7 34 -10 41 -5 16
-118 16 -132 0 -5 -7 -12 -24 -14 -38 -3 -23 -8 -25 -55 -28 -50 -3 -53 -2
-53 22 0 50 -8 56 -72 56 l-60 0 -15 -40 -16 -41 -56 3 c-51 3 -56 5 -59 28
-6 40 -21 50 -76 50 -57 0 -76 -12 -76 -47 0 -51 -82 -45 -88 7 -2 14 -6 32
-9 40 -3 8 -5 21 -4 29 1 7 -8 24 -20 37 -17 18 -33 24 -67 24 -60 0 -81 -26
-82 -99 0 -47 2 -52 18 -46 31 12 37 10 37 -10 0 -14 -6 -19 -20 -17 -41 6
-71 5 -87 -2 -19 -9 -50 21 -58 57 -5 19 -13 22 -64 25 -63 3 -76 -4 -76 -44
0 -25 -18 -34 -65 -34 -46 0 -65 9 -65 30 0 43 -10 50 -71 50 -56 0 -59 -1
-65 -27 -11 -52 -12 -53 -62 -53 -53 0 -68 10 -74 50 -3 23 -8 25 -62 28 -64
3 -76 -4 -76 -50 0 -24 -4 -26 -49 -30 -66 -4 -81 0 -81 23 0 45 -18 59 -74
59 -52 0 -53 -1 -68 -39 -13 -32 -21 -39 -49 -43 -49 -7 -67 1 -74 33 -9 38
-37 52 -90 44 -43 -6 -55 -18 -55 -55 0 -20 -50 -37 -71 -25 -16 11 -51 97
-44 113 3 8 -5 25 -17 38 -19 19 -33 24 -75 24 -41 0 -53 -3 -53 -15 0 -9 -7
-27 -16 -41 -11 -16 -15 -36 -11 -60 5 -32 3 -36 -28 -51 -39 -19 -65 -6 -65
31 0 33 -19 46 -68 46 -59 0 -82 -14 -82 -50 0 -30 0 -30 -60 -30 -51 0 -60 3
-60 18 0 10 -7 28 -16 40 -12 18 -25 22 -63 22 -52 0 -67 -10 -73 -50 -3 -23
-8 -25 -60 -28 -55 -3 -58 -2 -58 21 0 45 -20 58 -85 55 l-60 -3 -5 -35 c-5
-35 -5 -35 -61 -38 l-56 -3 -16 41 c-15 39 -16 40 -64 40 -59 0 -70 -7 -75
-45 -3 -29 -4 -30 -58 -30 l-55 0 -5 35 c-5 35 -6 35 -58 38 -60 3 -79 -7 -84
-46 -3 -26 -5 -27 -63 -27 l-60 0 -5 35 -5 35 -62 3 -62 3 -11 -41 c-11 -40
-12 -41 -48 -38 -34 3 -38 6 -46 41 l-10 37 -57 0 c-60 0 -72 -7 -83 -53 -6
-26 -10 -28 -53 -25 -42 3 -46 5 -57 38 -11 35 -12 35 -73 38 -61 3 -63 2 -69
-25 -3 -15 -7 -34 -10 -40 -2 -9 -24 -13 -63 -13 l-59 0 -9 38 c-9 37 -9 37
-66 40 l-58 3 -16 -40 c-16 -41 -17 -41 -68 -41 -51 0 -52 0 -61 38 -9 36 -10
37 -62 40 -60 3 -78 -6 -87 -49 -6 -28 -9 -29 -65 -29 l-59 0 -3 38 c-3 37 -4
37 -50 40 -60 4 -85 -10 -96 -51 -7 -28 -13 -32 -43 -33 -44 -1 -69 12 -69 36
0 43 -10 50 -71 50 l-59 0 -6 -40 -7 -40 -63 0 c-58 0 -64 2 -64 21 0 45 -17
59 -74 59 -57 0 -69 -8 -80 -52 -6 -25 -11 -28 -50 -28 -41 0 -44 2 -59 40
-15 40 -15 40 -71 40 -59 0 -76 -13 -76 -60 0 -19 -5 -21 -61 -18 -60 3 -62 4
-73 38 -10 33 -14 35 -60 38 -34 2 -53 -2 -66 -13 -11 -10 -31 -15 -52 -13
l-33 3 0 60 c0 58 1 60 28 63 28 3 28 4 25 70 -3 61 -5 67 -28 72 -21 5 -26
13 -30 53 -6 52 2 67 37 67 23 0 24 2 21 72 -3 64 -6 73 -23 76 -35 7 -41 19
-36 69 5 40 10 48 31 53 24 6 25 9 25 75 0 64 -2 70 -22 73 -31 5 -40 22 -35
68 3 37 7 43 33 48 28 5 29 7 29 71 0 64 0 65 -34 79 -33 14 -34 16 -29 58 7
63 10 68 38 68 24 0 25 2 25 60 0 56 -2 60 -30 75 -26 14 -30 21 -30 60 0 43
11 59 40 60 11 0 16 15 18 66 3 66 3 67 -28 77 -28 10 -30 14 -30 61 0 46 2
50 30 60 31 10 31 11 28 78 -3 66 -4 68 -30 71 -27 3 -28 6 -28 57 0 53 9 69
40 70 12 0 15 15 15 70 0 65 -1 69 -25 75 -23 5 -25 11 -25 60 0 49 2 55 25
60 24 6 25 10 25 75 0 69 0 70 -28 73 -27 3 -28 5 -25 60 3 51 5 57 28 62 24
6 25 10 25 75 0 65 -1 69 -25 75 -23 5 -25 11 -25 55 0 45 3 50 23 53 31 5 45
45 37 105 -6 43 -10 49 -36 54 -30 6 -30 6 -27 66 3 56 5 62 28 67 23 5 25 11
28 73 3 68 3 68 -28 78 -30 11 -31 13 -28 68 3 53 5 56 31 59 26 3 27 5 27 67
0 61 -1 63 -30 74 -27 9 -30 14 -30 56 0 31 5 47 15 51 16 7 35 63 35 106 0
15 -11 39 -25 54 -22 24 -25 36 -23 78 3 47 5 51 31 54 27 3 27 4 27 77 0 73
0 74 -27 77 -27 3 -28 5 -28 58 0 50 2 55 25 60 23 5 25 10 28 77 l3 70 -31 7
c-31 6 -31 7 -28 58 3 49 5 53 31 56 27 3 27 4 27 77 0 73 0 74 -27 77 -27 3
-28 5 -28 58 0 53 1 55 28 58 27 3 27 4 27 77 0 73 0 74 -27 77 -26 3 -28 7
-31 56 -2 31 1 53 7 53 6 1 16 3 21 4 6 1 14 3 19 4 12 1 19 100 10 128 -5 12
-18 23 -31 25 -21 3 -23 8 -23 58 0 53 1 55 28 58 27 3 27 4 27 73 0 69 0 70
-30 76 -28 5 -30 9 -30 47 0 50 9 65 35 63 18 -2 20 4 20 68 0 66 -1 69 -25
75 -23 5 -25 11 -28 68 -2 45 1 62 10 63 7 1 20 2 28 3 11 1 16 17 18 67 3 67
3 67 -28 78 -30 10 -31 13 -28 58 3 44 5 48 28 48 24 0 25 3 28 73 l3 72 -31
6 c-28 6 -30 9 -30 54 0 40 3 48 25 58 23 11 25 16 25 86 0 68 -3 78 -26 99
-20 19 -25 31 -22 63 2 30 8 40 23 42 33 6 41 26 35 88 -4 52 -8 59 -30 64
-23 5 -25 10 -25 65 0 58 1 60 28 63 l28 3 -3 72 c-3 67 -5 72 -28 77 -23 5
-25 10 -25 60 0 53 1 55 28 58 l28 3 -3 72 c-3 67 -5 72 -28 77 -23 5 -25 11
-25 60 0 49 2 55 25 60 21 5 26 13 31 55 8 72 2 93 -30 97 -25 3 -26 6 -26 58
0 53 1 55 28 58 l28 3 -3 72 c-3 67 -5 72 -28 77 -23 5 -25 11 -28 63 -3 57 0
62 36 58 18 -3 29 38 24 95 -3 48 -6 52 -33 58 -29 6 -30 7 -27 58 3 47 6 53
26 56 33 5 42 40 34 134 -1 10 -12 18 -29 20 -27 3 -28 5 -28 58 0 50 2 55 25
60 23 5 25 10 28 77 l3 70 -31 7 c-31 6 -31 7 -28 58 3 48 5 53 28 57 31 4 40
17 40 57 0 66 -11 93 -39 96 -25 3 -26 6 -26 58 0 52 1 55 26 58 23 3 28 9 33
45 9 59 -5 100 -35 107 -21 5 -24 12 -27 57 -3 48 -2 51 26 56 26 5 30 11 35
50 9 61 -4 100 -34 107 -22 5 -24 11 -24 60 0 51 2 55 25 59 32 4 40 17 40 63
0 53 -15 86 -42 90 -21 3 -23 8 -23 53 0 47 2 50 27 53 33 4 40 20 32 87 -6
49 -9 54 -33 57 -22 3 -26 8 -29 42 -5 61 4 86 33 86 26 0 27 1 29 75 2 48 -9
65 -40 65 -17 0 -24 6 -24 19 0 35 12 51 36 51 21 0 24 5 24 34 0 57 8 67 49
64 31 -3 36 -7 37 -28z m1327 24 c11 -12 -13 -44 -33 -44 -22 0 -34 15 -26 35
5 15 47 21 59 9z m117 -5 c0 -20 -21 -49 -35 -49 -22 0 -41 40 -24 51 20 12
59 11 59 -2z m1255 2 c6 -11 -35 -42 -47 -35 -4 3 -8 14 -8 25 0 14 7 19 24
19 14 0 27 -4 31 -9z m95 -11 c0 -15 -7 -20 -24 -20 -14 0 -28 5 -31 10 -10
16 4 30 31 30 17 0 24 -5 24 -20z m1226 9 c8 -14 -31 -53 -45 -45 -6 4 -11 18
-11 32 0 19 5 24 24 24 14 0 28 -5 32 -11z m104 2 c0 -23 -14 -41 -30 -41 -23
0 -34 16 -26 35 6 16 56 21 56 6z m154 -1 c17 -6 28 -21 34 -42 8 -32 9 -33
70 -36 60 -3 62 -2 72 25 18 51 26 58 66 58 38 0 39 -1 42 -37 3 -33 7 -38 35
-43 18 -4 53 -5 77 -3 39 3 45 6 48 28 6 38 21 50 63 50 40 0 69 -26 69 -61 0
-14 12 -18 58 -21 67 -5 80 2 84 45 3 31 5 32 51 35 56 4 77 -9 77 -48 0 -15
6 -30 13 -32 6 -2 84 -1 172 2 l160 5 3 38 3 37 48 0 c54 0 78 -14 83 -50 3
-24 6 -25 68 -25 l65 0 5 35 5 35 55 0 55 0 9 -38 10 -38 65 3 66 3 5 35 c5
32 8 35 44 38 65 5 84 -4 88 -41 l3 -32 65 0 65 0 3 38 3 37 54 0 54 0 11 -40
11 -40 63 0 c68 0 76 6 76 56 0 23 3 24 60 24 40 0 62 -4 64 -12 3 -7 7 -25
10 -40 6 -27 9 -28 64 -28 63 0 82 11 82 47 0 28 37 48 73 39 16 -4 29 -19 40
-46 l16 -41 58 3 58 3 3 38 c4 42 18 53 57 43 20 -5 25 -13 25 -39 0 -17 4
-36 8 -42 4 -6 82 -10 197 -10 l190 0 0 -390 c0 -214 4 -396 8 -402 5 -8 29
-13 58 -13 66 0 89 -13 89 -50 0 -36 -5 -39 -82 -51 -34 -6 -64 -12 -66 -14
-2 -1 -4 -157 -5 -346 l-2 -344 -40 0 c-38 0 -40 1 -43 35 -2 19 -15 53 -31
75 -55 82 -149 48 -159 -57 l-5 -48 -43 0 c-23 0 -45 4 -48 9 -3 5 -2 143 4
307 15 478 17 1251 4 1264 -9 9 -17 9 -33 1 -17 -10 -21 -21 -21 -66 0 -30 5
-55 10 -55 14 0 12 -28 -2 -32 -8 -3 -13 -24 -13 -56 0 -39 5 -54 19 -65 19
-14 19 -15 -2 -26 -18 -9 -22 -21 -22 -56 0 -27 6 -50 16 -60 15 -15 15 -17 0
-34 -21 -23 -22 -104 0 -122 14 -11 14 -13 0 -21 -23 -13 -22 -116 1 -133 15
-11 15 -14 -5 -40 -26 -33 -29 -91 -6 -123 15 -21 15 -25 0 -41 -21 -23 -22
-104 -1 -121 14 -12 14 -15 0 -30 -27 -30 -30 -78 -7 -110 18 -24 19 -30 7
-40 -23 -19 -29 -87 -11 -116 15 -22 15 -27 1 -46 -19 -28 -19 -77 0 -114 8
-16 15 -37 15 -47 0 -9 5 -26 12 -37 20 -31 -2 -38 -24 -7 -16 22 -27 27 -63
27 -38 0 -45 -3 -53 -27 -7 -17 -11 -21 -11 -11 -2 30 -43 49 -89 42 -36 -6
-42 -10 -48 -37 l-7 -31 -11 34 c-11 34 -12 35 -61 32 -28 -2 -57 -10 -66 -18
-14 -13 -17 -13 -22 0 -3 8 -3 31 0 50 5 31 1 40 -30 71 -46 46 -79 46 -123 0
-20 -22 -34 -48 -36 -68 -3 -32 -3 -32 -51 -29 -54 4 -77 -9 -77 -43 0 -20 6
-23 42 -27 23 -2 60 -1 82 2 40 5 41 6 46 51 6 48 32 99 52 99 29 0 48 -34 48
-85 0 -56 15 -80 40 -65 8 5 19 5 25 0 16 -13 584 -18 594 -6 5 6 11 36 13 67
10 123 100 115 102 -9 2 -65 9 -72 72 -72 30 0 62 -4 72 -9 9 -6 37 -13 62
-16 54 -7 65 -13 74 -41 9 -30 -17 -54 -59 -54 -19 0 -45 -4 -59 -10 l-25 -9
0 -500 c-1 -556 -7 -511 72 -511 42 0 77 -22 77 -48 0 -27 -32 -52 -66 -52
-18 0 -44 -4 -58 -10 l-26 -10 0 -404 c0 -347 -2 -407 -15 -420 -22 -22 -52
-29 -74 -17 -26 15 -104 14 -119 -1 -9 -9 -18 -9 -37 0 -32 15 -102 16 -110 2
-3 -5 -17 -10 -30 -10 -13 0 -27 5 -30 10 -3 6 -26 10 -50 10 -24 0 -47 -4
-50 -10 -3 -5 -17 -10 -30 -10 -13 0 -27 5 -30 10 -9 15 -97 12 -118 -4 -18
-14 -57 -11 -57 5 0 13 -67 11 -90 -3 -15 -10 -27 -10 -56 1 -35 13 -39 12
-56 -9 -11 -13 -16 -31 -12 -44 7 -30 -26 -105 -50 -112 -32 -11 -65 41 -66
104 0 45 -3 54 -22 61 -14 5 -28 5 -35 -1 -7 -6 -29 -7 -50 -3 -21 3 -54 6
-73 5 -70 -3 -106 -2 -136 5 -20 4 -41 2 -60 -8 -25 -13 -33 -13 -54 -1 -35
19 -90 17 -112 -3 -18 -16 -21 -16 -53 1 -25 13 -43 16 -74 11 -49 -8 -53 -13
-56 -74 -3 -57 -22 -91 -51 -91 -26 0 -54 39 -54 77 0 60 -9 73 -51 73 -21 0
-50 5 -63 12 -22 9 -29 8 -46 -7 -14 -13 -28 -16 -57 -11 -94 16 -111 17 -117
7 -10 -16 -54 -13 -86 6 -27 16 -31 16 -64 -2 -30 -17 -40 -18 -69 -7 -39 14
-86 15 -106 3 -8 -5 -14 -30 -16 -58 -3 -56 -28 -103 -55 -103 -26 0 -50 44
-50 93 0 24 -6 51 -13 61 -12 16 -18 17 -55 5 -32 -9 -51 -10 -78 -1 -24 7
-44 7 -64 0 -18 -6 -51 -6 -87 -1 -35 5 -73 5 -96 -1 -28 -7 -44 -6 -58 2 -25
16 -54 15 -89 -3 -22 -11 -35 -12 -56 -5 -14 6 -49 9 -78 8 l-51 -3 -1 434
c-1 477 2 451 -65 451 -21 0 -47 9 -63 21 -30 24 -31 28 -12 55 11 14 30 20
78 24 l63 5 0 495 0 495 -48 7 c-52 7 -97 31 -97 51 1 33 31 52 93 57 58 5 62
7 62 30 l0 25 125 -3 c145 -2 170 1 170 27 0 32 -26 43 -92 41 -35 -2 -93 -2
-130 -1 l-67 1 4 315 c4 361 8 345 -80 345 -46 0 -55 3 -70 26 -15 24 -15 27
0 44 26 29 70 43 93 31 14 -7 24 -6 40 5 22 15 22 16 22 458 0 243 3 446 7
449 10 10 68 8 97 -3z m1066 -16 c0 -33 -33 -30 -38 4 -3 17 2 22 17 22 16 0
21 -6 21 -26z m2452 1 c-5 -27 -7 -28 -31 -15 -32 16 -27 42 7 38 21 -2 26 -8
24 -23z m-3867 -199 c15 -5 20 -642 5 -651 -6 -4 -228 -5 -493 -4 -265 2 -537
3 -604 2 -89 -1 -123 2 -124 10 -2 52 3 642 6 646 3 6 1193 3 1210 -3z m-6
-2808 c3 -7 5 -212 3 -456 l-2 -442 -608 2 -607 3 -3 435 c-1 239 0 444 2 455
5 20 13 20 607 18 489 -1 603 -4 608 -15z m1586 -1112 c6 -2 9 -90 8 -242 -1
-132 -2 -241 -2 -244 -2 -10 -546 -5 -553 5 -8 10 -11 478 -4 486 5 5 536 0
551 -5z m5858 -5181 l1 -260 -518 -3 c-504 -2 -556 1 -556 28 0 13 -37 50 -49
50 -5 0 -17 7 -25 16 -14 13 -16 47 -16 218 0 111 3 206 7 210 4 3 265 5 581
4 l574 -3 1 -260z m-1101 -269 c24 -30 54 -76 68 -103 46 -88 94 -144 163
-190 65 -43 67 -46 67 -86 0 -23 -6 -53 -13 -67 -8 -14 -30 -55 -50 -93 -41
-75 -45 -109 -19 -150 35 -52 52 -64 194 -132 42 -21 85 -47 96 -59 26 -28 52
-114 53 -173 1 -81 29 -208 56 -251 9 -15 32 -40 51 -57 126 -110 142 -133
142 -207 0 -53 -27 -141 -49 -158 -3 -3 -17 -21 -31 -40 -66 -95 -146 -150
-216 -150 -82 0 -222 72 -292 150 -39 44 -87 133 -112 210 -13 41 -30 86 -37
100 -7 14 -13 31 -13 38 0 6 -4 12 -10 12 -5 0 -10 6 -10 13 0 16 -77 98 -116
123 -68 44 -93 116 -94 274 -1 63 4 133 9 155 14 55 14 291 0 317 -20 38 -24
219 -5 279 14 49 27 116 43 224 13 91 63 100 125 21z m-6237 -735 c9 -15 -14
-24 -43 -16 -20 5 -23 8 -11 16 18 11 46 12 54 0z m1610 -1 c8 -13 -20 -24
-41 -16 -20 8 -9 26 16 26 10 0 22 -5 25 -10z m39 -106 c7 -19 -1 -34 -19 -34
-21 0 -28 19 -15 35 16 19 26 19 34 -1z m1944 -18 c3 -11 -4 -16 -22 -16 -28
0 -39 11 -30 33 7 20 48 7 52 -17z m-3650 7 c5 -17 -26 -29 -40 -15 -6 6 -7
15 -3 22 9 14 37 9 43 -7z m107 8 c6 -10 -25 -31 -44 -31 -6 0 -11 9 -11 20 0
15 7 20 24 20 14 0 27 -4 31 -9z m3643 -8 c5 -17 -26 -29 -40 -15 -6 6 -7 15
-3 22 9 14 37 9 43 -7z"/>
<path d="M830 29461 c-15 -29 -14 -713 2 -729 9 -9 157 -12 604 -12 326 0 599
3 608 6 14 5 16 47 16 366 0 332 -1 362 -17 374 -15 11 -134 13 -610 14 -576
0 -593 -1 -603 -19z m1173 -45 c16 -4 17 -28 17 -325 0 -299 -1 -321 -17 -321
-207 -2 -1127 1 -1130 3 -2 3 -5 561 -3 642 0 10 1092 11 1133 1z"/>
<path d="M2222 29460 c-30 -3 -57 -12 -62 -20 -6 -9 -10 -166 -10 -362 0 -322
1 -347 18 -352 29 -9 1186 -12 1200 -3 9 6 12 91 12 366 l0 359 -27 10 c-30
12 -1031 14 -1131 2z m1103 -50 c3 -5 7 -151 8 -324 2 -271 0 -317 -13 -321
-29 -12 -1100 -3 -1108 9 -4 6 -6 154 -4 329 l3 317 554 0 c341 0 556 -4 560
-10z"/>
<path d="M8580 29431 c-13 -26 -13 -590 0 -662 6 -29 15 -58 21 -64 6 -6 105
-11 259 -13 l248 -4 17 25 c14 22 16 64 14 359 -2 274 -4 337 -17 356 -14 22
-16 22 -273 22 -245 0 -259 -1 -269 -19z m498 -360 l2 -331 -225 0 -225 0 0
328 c0 181 2 331 4 333 2 2 103 3 223 3 l218 -2 3 -331z"/>
<path d="M9218 29428 c-8 -17 -13 -122 -16 -367 -4 -324 -3 -345 14 -358 24
-18 374 -19 392 -1 9 9 12 102 12 355 0 300 -2 347 -16 368 l-16 25 -179 0
c-175 0 -179 0 -191 -22z m337 -362 l0 -329 -143 1 c-79 0 -146 3 -148 5 -9 9
-4 641 5 651 6 7 56 9 148 6 l138 -5 0 -329z"/>
<path d="M9722 29434 l-22 -15 0 -353 c0 -286 3 -356 14 -365 9 -8 178 -10
612 -9 l599 3 3 360 c2 357 2 360 -19 378 -20 16 -63 17 -593 17 -501 0 -574
-2 -594 -16z m1156 -371 l-3 -328 -560 2 -560 2 -3 326 -2 325 565 0 565 0 -2
-327z"/>
<path d="M11023 29431 l-23 -19 0 -355 0 -355 31 -11 c42 -14 1166 -15 1203
-1 l26 10 -2 362 -3 362 -25 13 c-19 10 -157 13 -605 13 -553 -1 -581 -2 -602
-19z m1183 -49 c15 -9 15 -634 -1 -644 -11 -9 -1116 -11 -1137 -3 -10 4 -12
65 -10 318 1 171 2 318 2 325 0 9 120 12 568 12 312 0 572 -4 578 -8z"/>
<path d="M826 28617 c-3 -13 -6 -165 -6 -339 0 -234 4 -319 13 -331 11 -15 72
-17 592 -23 403 -4 588 -3 608 5 l27 11 -2 347 -3 348 -611 3 -612 2 -6 -23z
m1172 -32 l22 -5 -2 -298 -3 -297 -569 -3 c-335 -1 -572 2 -575 7 -3 5 -5 143
-3 308 l3 298 552 -3 c303 -1 562 -5 575 -7z"/>
<path d="M2163 28613 c-10 -4 -13 -82 -13 -343 0 -260 3 -341 13 -347 20 -13
1172 -16 1196 -3 21 10 21 17 21 345 0 320 -1 335 -19 345 -20 10 -1173 14
-1198 3z m1041 -46 l120 -2 -2 -295 c-1 -162 -2 -298 -2 -303 0 -4 -251 -6
-557 -5 l-558 3 -3 299 c-1 174 2 302 7 305 8 6 714 4 995 -2z"/>
<path d="M3506 28607 c-15 -11 -16 -44 -14 -352 l3 -340 649 -3 c471 -1 653 1
662 9 11 9 14 70 13 313 -1 297 -3 322 -26 361 -11 19 -27 19 -641 22 -483 2
-633 0 -646 -10z m1254 -49 c0 -7 1 -145 3 -306 1 -189 -2 -292 -8 -293 -5 0
-282 0 -614 0 l-604 1 1 293 c1 160 2 298 2 305 0 9 129 12 610 12 481 0 610
-3 610 -12z"/>
<path d="M9385 28590 l-180 -5 -3 -337 -2 -337 22 -7 c38 -12 352 -8 376 5 22
12 22 14 22 336 0 323 0 324 -22 339 -12 9 -25 15 -28 14 -3 -1 -86 -5 -185
-8z m169 -49 c4 -5 7 -138 9 -296 2 -279 1 -286 -18 -291 -11 -3 -83 -3 -160
-2 l-140 3 -3 285 c-1 157 0 290 3 297 5 15 300 19 309 4z"/>
<path d="M8588 28579 c-17 -9 -18 -36 -18 -334 0 -315 1 -325 20 -335 12 -7
115 -13 256 -15 197 -4 240 -2 265 10 l29 16 0 328 c0 291 -2 330 -16 335 -27
10 -518 6 -536 -5z m497 -37 c6 -4 8 -109 5 -297 l-5 -290 -235 0 -235 0 -3
289 c-1 188 1 292 8 296 14 9 453 11 465 2z"/>
<path d="M9712 28578 c-9 -9 -12 -97 -12 -335 l0 -323 26 -10 c36 -14 1169
-13 1195 0 18 10 19 25 19 335 0 310 -1 325 -19 335 -30 15 -1193 14 -1209 -2z
m1168 -38 c3 0 4 -132 3 -292 l-1 -293 -566 -3 c-449 -2 -566 0 -566 10 -2 88
2 572 4 577 3 4 920 5 1126 1z"/>
<path d="M11016 28574 c-14 -13 -16 -58 -16 -333 l0 -318 25 -11 c35 -16 1185
-18 1214 -2 21 10 21 18 21 330 0 276 -2 321 -16 334 -14 14 -83 16 -614 16
-531 0 -600 -2 -614 -16z m1186 -34 c3 0 5 -132 3 -292 l-4 -293 -571 0 -571
0 -2 293 c-1 160 1 293 5 295 6 1 1043 -1 1140 -3z"/>
<path d="M843 27750 l-23 -9 0 -490 c0 -432 2 -491 16 -505 14 -14 82 -16 604
-16 324 0 595 3 604 6 14 5 16 59 16 504 0 465 -1 498 -17 505 -29 11 -1175
16 -1200 5z m1152 -47 c20 -4 20 -12 20 -461 l0 -457 -573 0 -573 0 0 458 c0
251 1 459 1 462 0 7 1095 5 1125 -2z"/>
<path d="M2163 27743 c-10 -4 -13 -116 -13 -513 l0 -507 31 -7 c17 -3 285 -6
595 -6 547 0 564 1 574 19 15 30 14 993 -2 1009 -9 9 -153 12 -593 11 -319 0
-586 -3 -592 -6z m1145 -514 l-3 -470 -545 0 c-300 0 -551 1 -559 1 -11 0 -12
77 -8 468 3 257 6 468 6 470 1 1 251 2 556 2 l555 0 -2 -471z"/>
<path d="M3502 27722 c-18 -18 -19 -46 -18 -506 1 -421 3 -488 16 -496 19 -12
1275 -9 1287 3 13 14 10 974 -4 988 -24 24 -115 28 -680 29 -553 0 -584 -1
-601 -18z m1250 -505 l0 -458 -609 0 -608 0 -3 448 c-1 246 0 454 3 461 3 10
131 12 610 10 l606 -3 1 -458z"/>
<path d="M8622 27720 c-19 -4 -38 -12 -43 -17 -4 -4 -9 -221 -10 -481 -1 -391
1 -476 12 -487 11 -12 109 -15 506 -20 485 -5 493 -5 513 15 19 19 20 32 20
494 0 383 -3 476 -13 485 -17 13 -934 24 -985 11z m936 -505 l2 -455 -472 2
-473 3 -3 449 c-2 353 1 451 10 458 7 5 220 6 473 4 l460 -5 3 -456z"/>
<path d="M9728 27723 c-10 -2 -20 -14 -23 -26 -9 -35 -1 -965 8 -974 5 -4 273
-9 596 -11 499 -2 589 0 606 12 20 14 20 26 17 493 -3 466 -4 478 -24 496 -19
16 -61 17 -592 16 -314 -1 -579 -3 -588 -6z m1150 -505 l2 -458 -565 0 -565 0
0 453 c0 250 3 457 7 460 3 4 257 6 562 5 l556 -3 3 -457z"/>
<path d="M11023 27720 l-23 -9 0 -285 0 -285 30 -16 c25 -13 108 -15 607 -15
507 0 581 2 601 16 22 15 22 17 22 300 l0 284 -26 10 c-32 13 -1180 12 -1211
0z m1182 -49 c3 -5 6 -118 8 -250 2 -193 -1 -242 -11 -246 -21 -8 -1136 -6
-1147 3 -6 4 -10 99 -10 247 0 148 4 243 10 247 15 11 1143 10 1150 -1z"/>
<path d="M831 26672 c-17 -31 -15 -963 2 -985 11 -16 57 -17 607 -15 l595 3 2
490 c2 270 -1 495 -5 501 -5 8 -182 13 -599 19 -587 7 -591 7 -602 -13z m1078
-45 l83 -2 0 -449 c-1 -246 -3 -450 -5 -453 -5 -5 -1109 -4 -1114 1 -3 2 -5
800 -3 901 0 9 755 11 1039 2z"/>
<path d="M2150 26634 c-16 -41 -13 -949 3 -962 17 -14 1167 -26 1187 -13 13 9
15 74 16 483 0 260 -3 483 -8 496 l-8 22 -590 0 -590 0 -10 -26z m1155 -474
l0 -455 -555 0 -555 0 -3 445 c-1 245 0 451 3 458 3 10 120 12 557 10 l553 -3
0 -455z"/>
<path d="M8601 26601 c-17 -4 -28 -17 -33 -38 -5 -17 -7 -233 -6 -480 l3 -448
509 -3 c375 -2 512 1 523 9 21 18 15 945 -7 959 -17 11 -951 12 -989 1z m952
-41 c4 0 6 -198 5 -441 l-3 -441 -473 -1 -473 -1 -1 435 c0 240 2 440 5 445 4
7 341 9 940 4z"/>
<path d="M9706 26594 c-3 -9 -6 -226 -6 -484 0 -371 3 -470 13 -478 20 -17
1183 -18 1202 -2 13 11 15 79 15 471 0 273 -4 468 -10 483 l-10 26 -599 0
c-537 0 -599 -2 -605 -16z m1166 -34 c3 0 6 -199 5 -442 l-2 -443 -563 0 -563
0 1 439 c0 241 2 442 4 445 3 4 631 5 1118 1z"/>
<path d="M811 25566 c-8 -9 -11 -96 -9 -297 l3 -284 30 -6 c17 -4 289 -7 605
-8 436 -1 579 2 588 11 9 9 12 87 12 289 0 153 -3 284 -6 293 -6 14 -68 16
-609 16 -498 0 -605 -2 -614 -14z m1176 -40 c5 -5 5 -497 0 -502 -5 -6 -1128
-6 -1134 0 -8 8 -2 490 6 500 7 8 182 10 567 8 307 -2 560 -4 561 -6z"/>
<path d="M2142 25555 c-18 -40 -17 -1168 1 -1183 15 -13 1159 -19 1190 -7 16
7 17 44 17 595 0 534 -2 589 -17 601 -13 11 -123 15 -598 17 l-581 4 -12 -27z
m1143 -40 c20 -4 20 -12 20 -550 0 -538 0 -546 -20 -551 -11 -2 -263 -3 -560
-2 l-540 3 -3 535 c-1 294 0 544 2 555 5 20 12 20 543 18 296 -2 547 -5 558
-8z"/>
<path d="M3480 25550 c-13 -8 -15 -53 -18 -284 -3 -273 -2 -275 20 -295 22
-21 29 -21 652 -21 380 0 637 4 646 10 13 8 15 53 18 288 3 247 1 282 -13 296
-15 14 -80 16 -653 16 -384 0 -643 -4 -652 -10z m1265 -40 c4 -7 8 -326 5
-492 0 -11 -536 -15 -1232 -8 -5 0 -8 112 -8 250 l0 250 608 3 c334 1 610 3
614 5 4 1 10 -2 13 -8z"/>
<path d="M4892 25538 c-9 -9 -12 -86 -12 -283 0 -251 1 -273 18 -288 17 -15
57 -17 374 -17 196 0 363 3 372 6 14 5 16 40 16 290 0 270 -1 284 -19 294 -30
15 -733 14 -749 -2z m706 -43 l22 -5 0 -240 0 -240 -24 -6 c-28 -7 -653 0
-660 7 -10 10 -7 470 2 482 8 9 92 11 324 9 172 -1 323 -4 336 -7z"/>
<path d="M8563 25525 c-23 -16 -23 -18 -23 -276 0 -160 4 -268 10 -280 10 -18
27 -19 524 -19 459 0 515 2 520 16 3 9 6 137 6 284 0 247 -1 270 -17 278 -10
5 -238 10 -508 11 -438 2 -492 1 -512 -14z m989 -270 c0 -126 -1 -238 -1 -247
-1 -16 -35 -17 -473 -15 l-473 2 -3 235 c-1 129 0 240 3 247 3 11 100 13 475
11 l471 -3 1 -230z"/>
<path d="M9703 25529 c-10 -10 -13 -143 -13 -598 0 -323 4 -591 8 -598 6 -9
153 -12 599 -14 325 -1 596 2 602 5 18 11 15 1180 -2 1195 -21 17 -1178 27
-1194 10z m1144 -47 c9 -6 13 -136 13 -552 0 -300 1 -551 0 -557 0 -10 -119
-13 -560 -13 l-560 0 0 558 c0 307 3 562 7 565 9 10 1085 8 1100 -1z"/>
<path d="M6585 25523 c-11 -3 -28 -12 -37 -21 -16 -14 -18 -39 -18 -254 0
-195 3 -244 15 -268 l16 -30 358 0 c334 0 359 1 374 18 15 16 17 50 17 270 0
239 -1 253 -20 272 -19 19 -33 20 -352 19 -183 -1 -342 -4 -353 -6z m665 -43
c10 0 8 -460 -1 -466 -8 -4 -270 -6 -651 -4 -8 0 -11 463 -4 471 3 3 567 2
656 -1z"/>
<path d="M7424 25516 c-18 -14 -19 -29 -19 -273 0 -152 4 -265 10 -275 9 -17
43 -18 480 -18 353 0 474 3 483 12 9 9 12 85 12 280 0 254 -1 268 -19 278 -13
6 -180 10 -473 10 -377 0 -457 -2 -474 -14z m894 -36 c10 0 12 -52 10 -242
l-3 -243 -430 0 -430 0 -3 235 c-1 129 -1 239 2 245 2 7 144 9 422 7 231 -1
425 -2 432 -2z"/>
<path d="M10988 25520 c-16 -10 -18 -34 -18 -279 0 -214 3 -271 14 -280 9 -8
183 -10 632 -9 l619 3 2 270 c2 149 -1 276 -5 283 -11 17 -1217 28 -1244 12z
m1198 -52 c8 -13 12 -455 4 -467 -4 -8 -176 -10 -590 -9 l-583 3 -1 230 c-1
133 3 236 8 243 8 11 116 13 584 10 316 -2 576 -6 578 -10z"/>
<path d="M817 24902 c-15 -16 -17 -50 -17 -266 l0 -246 26 -10 c40 -15 1187
-13 1202 2 9 9 12 80 12 259 0 212 -2 250 -16 263 -14 14 -82 16 -603 16 -557
0 -589 -1 -604 -18z m1173 -255 c3 -121 2 -221 -3 -224 -5 -3 -893 -6 -1132
-3 -14 0 -14 432 0 442 5 4 262 7 570 5 l560 -2 5 -218z"/>
<path d="M3472 24888 c-9 -9 -12 -82 -12 -270 0 -244 1 -258 19 -268 24 -12
1279 -14 1299 -2 9 7 12 69 10 278 l-3 269 -650 3 c-498 2 -654 -1 -663 -10z
m1266 -38 c9 0 12 -53 12 -230 l0 -230 -616 -2 c-339 -2 -618 1 -621 5 -4 7
-7 432 -4 457 1 4 891 4 1229 0z"/>
<path d="M4887 24883 c-4 -3 -7 -123 -7 -265 l0 -258 26 -10 c31 -12 723 -13
742 -2 9 7 12 68 10 273 l-3 264 -381 3 c-209 1 -383 -1 -387 -5z m731 -265
l2 -228 -345 0 -345 0 0 223 c0 123 3 227 7 230 4 4 158 6 342 5 l336 -3 3
-227z"/>
<path d="M5739 24868 c-14 -26 -7 -504 8 -519 12 -12 623 -13 636 0 16 16 13
506 -3 526 -11 13 -57 15 -321 15 -308 0 -308 0 -320 -22z m353 -30 c167 -1
248 -5 250 -12 2 -6 3 -108 3 -226 l0 -215 -280 0 -280 0 -3 210 c-3 248 -2
259 36 251 15 -4 138 -7 274 -8z"/>
<path d="M6547 24872 c-15 -16 -17 -50 -17 -264 0 -223 2 -246 18 -261 15 -14
65 -17 365 -22 309 -6 351 -5 372 9 l25 16 0 254 0 254 -25 16 c-21 14 -69 16
-373 16 -325 0 -350 -1 -365 -18z m701 -46 c2 -3 4 -334 2 -434 0 -10 -69 -12
-327 -10 l-328 3 -3 215 c-1 118 -1 219 2 225 3 9 644 10 654 1z"/>
<path d="M7418 24859 c-16 -9 -18 -32 -18 -253 0 -219 2 -244 18 -259 15 -13
77 -16 478 -18 376 -3 464 -1 478 10 14 12 16 45 16 266 0 221 -2 254 -16 259
-28 11 -938 6 -956 -5z m904 -34 c10 -4 13 -51 13 -223 l0 -217 -439 0 -438 0
1 214 c1 118 4 218 7 223 6 9 833 12 856 3z"/>
<path d="M8552 24858 c-9 -9 -12 -80 -12 -258 l0 -246 28 -16 c24 -14 88 -16
519 -17 482 -2 492 -2 502 18 16 29 15 503 -1 519 -9 9 -138 12 -518 12 -380
0 -509 -3 -518 -12z m995 -41 c2 -3 4 -101 4 -218 l1 -214 -476 -3 -476 -2 0
218 c0 120 2 221 4 223 6 5 937 1 943 -4z"/>
<path d="M11000 24863 c-8 -3 -18 -11 -22 -17 -11 -16 -9 -498 2 -516 14 -23
1225 -29 1255 -7 19 15 20 27 20 265 0 196 -3 252 -14 265 -12 16 -67 17 -620
16 -333 0 -613 -3 -621 -6z m1201 -47 c2 -2 3 -106 1 -230 l-3 -226 -589 0
-589 0 1 230 1 230 587 0 c323 0 589 -2 591 -4z"/>
<path d="M823 24290 l-23 -9 0 -306 0 -305 26 -10 c39 -15 1191 -13 1200 2 7
11 6 619 0 626 -9 9 -1183 11 -1203 2z m1165 -318 l2 -272 -572 2 -573 3 -3
273 -2 272 572 -2 573 -3 3 -273z"/>
<path d="M2130 24271 c-6 -12 -10 -129 -10 -309 0 -231 3 -292 13 -301 10 -8
191 -13 597 -18 561 -6 583 -6 596 12 11 15 14 79 14 301 0 160 -4 294 -10
308 l-10 26 -589 0 c-573 0 -591 -1 -601 -19z m1156 -46 c2 -11 3 -135 2 -275
l-3 -255 -544 -3 c-301 -1 -549 2 -554 7 -8 8 -11 527 -2 541 2 3 249 6 550 6
537 -1 546 -1 551 -21z"/>
<path d="M3458 24259 c-17 -9 -18 -34 -18 -303 0 -271 1 -294 18 -309 17 -15
78 -17 669 -17 584 0 651 2 657 16 3 9 6 148 6 309 0 281 -1 295 -19 305 -27
14 -1289 13 -1313 -1z m1269 -43 c7 -6 5 -525 -2 -536 -5 -8 -185 -9 -613 -5
-333 3 -607 7 -609 9 -8 7 -8 536 -1 539 13 4 1221 -2 1225 -7z"/>
<path d="M4896 24254 c-14 -13 -16 -54 -16 -293 0 -257 1 -279 18 -294 17 -15
57 -17 375 -17 310 0 358 2 371 16 14 13 16 54 16 294 0 240 -2 281 -16 294
-13 14 -61 16 -374 16 -313 0 -361 -2 -374 -16z m702 -38 c4 -2 5 -119 2 -260
l-5 -257 -325 0 -325 0 -3 253 c-1 139 -1 257 2 263 3 10 638 11 654 1z"/>
<path d="M5752 24258 c-14 -14 -17 -574 -4 -595 6 -9 86 -13 315 -13 168 -1
311 1 317 5 15 9 14 587 -2 603 -9 9 -92 12 -313 12 -221 0 -304 -3 -313 -12z
m585 -41 c1 -2 3 -119 4 -262 l2 -260 -278 2 -278 2 1 263 c0 145 1 263 1 263
94 0 546 -7 548 -8z"/>
<path d="M6552 24254 c-22 -15 -22 -18 -22 -303 l0 -289 28 -10 c16 -6 166
-13 369 -15 322 -5 343 -4 358 13 14 16 18 56 22 279 5 270 3 299 -23 325 -23
23 -699 24 -732 0z m696 -296 l-3 -263 -320 -2 c-176 -2 -324 0 -330 5 -6 4
-9 101 -7 265 l3 257 330 0 329 0 -2 -262z"/>
<path d="M7419 24264 c-24 -7 -29 -88 -25 -364 4 -209 6 -236 22 -247 14 -10
88 -13 313 -13 163 -1 368 -3 456 -6 224 -8 205 -38 205 320 0 236 -2 286 -15
296 -10 9 -135 13 -477 15 -255 2 -470 2 -479 -1z m911 -309 l0 -265 -442 2
-443 3 -3 263 -2 262 445 0 445 0 0 -265z"/>
<path d="M8550 24241 c-6 -12 -10 -126 -10 -300 0 -280 0 -280 23 -293 17 -10
138 -14 519 -16 l498 -4 11 28 c6 18 9 126 8 298 -2 246 -4 271 -21 288 -17
17 -46 18 -518 18 -483 0 -500 -1 -510 -19z m643 -41 l357 0 0 -255 0 -255
-477 2 -477 3 2 249 c1 137 5 253 9 259 4 6 47 8 117 3 61 -3 272 -6 469 -6z"/>
<path d="M9700 24240 c-7 -13 -13 -126 -16 -289 -5 -242 -4 -272 11 -295 l17
-26 587 0 c443 0 590 3 599 12 9 9 12 89 12 299 0 286 0 288 -22 303 -20 14
-93 16 -600 16 -569 0 -577 0 -588 -20z m1153 -49 c8 -8 11 -491 3 -499 -3 -2
-574 -3 -1108 -2 -8 0 -11 503 -4 511 8 8 1101 -2 1109 -10z"/>
<path d="M10992 24244 c-22 -15 -22 -17 -22 -298 0 -261 1 -284 18 -299 17
-15 75 -17 630 -17 604 0 611 0 622 20 7 13 11 115 11 290 0 283 -3 303 -46
314 -11 3 -283 6 -605 6 -514 0 -588 -2 -608 -16z m1208 -298 c0 -152 -4 -257
-10 -261 -17 -10 -1144 -5 -1154 5 -7 7 -13 451 -6 508 0 1 263 2 585 2 l585
0 0 -254z"/>
<path d="M834 23573 c-30 -21 -34 -56 -34 -316 0 -211 3 -267 14 -276 9 -8
178 -10 612 -9 l599 3 3 289 c1 159 -1 293 -5 297 -11 10 -1175 21 -1189 12z
m1146 -292 c0 -186 -3 -252 -12 -257 -12 -8 -1098 -7 -1106 1 -3 3 -4 299 -2
498 0 4 252 7 560 7 l560 0 0 -249z"/>
<path d="M2132 23558 c-9 -9 -12 -87 -12 -289 0 -239 2 -280 16 -293 14 -14
82 -16 599 -16 449 0 586 3 591 12 10 16 19 515 10 562 l-7 36 -592 0 c-448 0
-596 -3 -605 -12z m1153 -291 l0 -258 -549 0 c-302 0 -552 4 -555 8 -3 4 -5
122 -3 261 l3 252 552 -2 552 -3 0 -258z"/>
<path d="M3456 23554 c-14 -13 -16 -54 -16 -294 0 -266 1 -280 19 -290 21 -11
1286 -15 1315 -4 14 5 16 40 16 289 0 260 -1 283 -18 298 -17 15 -77 17 -660
17 -569 0 -642 -2 -656 -16z m1269 -34 c10 -17 7 -503 -3 -509 -6 -3 -285 -5
-621 -3 l-610 2 4 247 c3 136 8 250 13 255 4 4 275 9 602 11 327 1 598 3 602
5 4 1 10 -2 13 -8z"/>
<path d="M4897 23552 c-15 -16 -17 -52 -17 -295 0 -263 1 -277 19 -287 13 -6
149 -10 375 -10 311 0 357 2 370 16 14 14 16 51 16 282 -1 244 -3 269 -20 290
l-18 22 -355 0 c-330 0 -355 -1 -370 -18z m393 -38 l305 -4 0 -251 0 -251
-325 1 c-179 0 -327 1 -330 1 -7 0 -3 489 4 507 4 9 13 13 23 9 10 -4 155 -9
323 -12z"/>
<path d="M5746 23534 c-3 -9 -6 -139 -6 -289 0 -257 1 -275 19 -284 10 -6 147
-13 304 -17 282 -6 285 -6 306 15 21 21 22 27 19 297 -3 231 -5 276 -18 284
-9 6 -144 10 -316 10 -266 0 -303 -2 -308 -16z m582 -34 c10 0 12 -53 10 -247
l-3 -248 -273 0 -273 0 0 245 c0 135 0 247 0 250 1 4 295 4 539 0z"/>
<path d="M6543 23543 c-20 -7 -18 -576 1 -592 9 -8 117 -11 377 -9 l364 3 3
294 c2 229 -1 296 -10 303 -14 8 -714 10 -735 1z m699 -43 c9 0 7 -485 -2
-500 -8 -13 -634 -9 -648 4 -9 10 -9 495 0 498 5 2 151 2 325 1 175 -2 321 -3
325 -3z"/>
<path d="M7418 23543 c-11 -3 -18 -14 -19 -31 -8 -363 -6 -529 7 -549 l14 -23
470 0 469 0 16 30 c14 26 15 70 13 289 -2 201 -6 262 -17 274 -12 15 -57 17
-475 16 -253 -1 -469 -3 -478 -6z m910 -295 l-3 -253 -420 -3 c-231 -1 -430 0
-443 3 l-23 6 2 249 2 250 444 0 443 0 -2 -252z"/>
<path d="M8553 23542 c-17 -11 -20 -567 -3 -587 11 -13 88 -15 526 -15 l514 0
5 23 c3 12 4 148 3 302 l-3 280 -515 2 c-283 2 -520 -1 -527 -5z m995 -46 c5
-6 5 -496 -1 -502 -6 -7 -933 -5 -950 2 -21 8 -19 502 2 506 23 5 944 -2 949
-6z"/>
<path d="M9697 23526 c-9 -22 -10 -549 -2 -568 7 -17 45 -18 605 -18 536 0
598 2 604 16 3 9 6 138 6 288 0 198 -3 275 -12 284 -9 9 -157 12 -604 12 -501
0 -593 -2 -597 -14z m1151 -41 c9 -3 12 -61 12 -243 0 -201 -2 -242 -15 -252
-19 -16 -1086 -11 -1097 5 -8 10 -11 488 -4 496 6 5 1087 0 1104 -6z"/>
<path d="M10991 23526 c-14 -17 -18 -563 -4 -577 4 -4 284 -9 622 -10 589 -2
614 -2 627 16 17 24 20 534 4 566 -10 18 -28 19 -624 19 -513 0 -615 -2 -625
-14z m1204 -291 l0 -250 -580 0 -580 0 -3 240 c-1 132 0 245 3 252 3 11 121
13 582 11 l578 -3 0 -250z"/>
<path d="M12387 22913 c-4 -3 -7 -23 -7 -44 0 -31 -5 -40 -27 -51 -27 -13 -28
-16 -28 -87 0 -72 1 -75 29 -90 16 -9 28 -20 27 -24 0 -4 -1 -24 -1 -45 0 -33
-4 -39 -30 -49 -28 -11 -30 -14 -30 -65 0 -29 4 -58 8 -64 11 -16 73 -45 83
-38 16 9 10 39 -11 57 -11 9 -20 28 -20 42 0 14 8 29 20 35 18 9 20 21 20 95
0 74 -2 86 -20 95 -31 17 -28 83 5 104 20 13 25 25 25 61 0 48 -25 87 -43 68z"/>
<path d="M816 22868 c-14 -19 -16 -67 -16 -318 0 -221 3 -300 13 -313 11 -15
62 -17 605 -17 326 -1 597 2 602 5 6 4 10 128 10 325 0 305 -1 320 -19 330
-13 6 -219 10 -600 10 l-580 0 -15 -22z m1037 -31 l119 -2 0 -275 c-1 -151 -1
-281 -1 -288 -1 -10 -115 -12 -553 -10 l-553 3 -3 280 c-1 154 -1 284 2 290 3
9 598 11 989 2z"/>
<path d="M2137 22862 c-15 -17 -17 -53 -17 -335 l0 -317 24 -15 c21 -14 92
-15 590 -14 480 1 569 4 582 16 12 12 14 68 14 331 0 182 -4 323 -10 332 -8
13 -86 15 -588 18 -552 2 -579 2 -595 -16z m1143 -50 c3 -4 4 -136 2 -295 l-3
-287 -550 2 -551 3 1 288 c1 159 3 292 5 295 6 9 1089 3 1096 -6z"/>
<path d="M3461 22861 c-20 -20 -21 -29 -21 -329 0 -250 3 -312 14 -328 14 -18
31 -19 661 -17 356 1 649 4 651 6 8 8 4 661 -4 669 -5 5 -295 11 -644 14
l-636 6 -21 -21z m1264 -336 l0 -290 -612 -3 -613 -2 0 295 0 295 613 -2 612
-3 0 -290z"/>
<path d="M4903 22868 c-14 -6 -25 -24 -29 -43 -3 -17 -4 -165 -2 -329 2 -250
5 -298 18 -306 23 -15 743 -13 758 2 9 9 12 97 12 335 0 307 -1 323 -19 333
-28 15 -709 23 -738 8z m700 -346 c1 -160 -1 -292 -5 -292 -10 -1 -655 -1
-668 0 -6 0 -10 105 -10 295 l0 295 341 -2 341 -3 1 -293z"/>
<path d="M5741 22847 c-7 -10 -11 -114 -11 -332 -1 -269 1 -320 14 -333 12
-12 66 -16 303 -20 210 -3 295 -2 311 7 22 12 22 12 22 345 l0 334 -22 6 c-13
3 -154 6 -314 6 -231 0 -294 -3 -303 -13z m580 -37 c3 0 5 -132 4 -292 l-1
-293 -272 -3 -272 -2 0 293 c0 162 2 296 4 298 3 3 475 2 537 -1z"/>
<path d="M6548 22853 c-11 -3 -18 -14 -18 -31 -4 -215 1 -647 8 -654 4 -4 174
-7 378 -6 l369 3 3 335 c2 306 1 336 -15 348 -13 9 -100 12 -362 11 -190 -1
-354 -3 -363 -6z m693 -55 c0 -11 0 -543 -1 -586 0 -10 -70 -12 -332 -10
l-333 3 -3 290 c-1 159 0 295 3 302 7 19 665 19 666 1z"/>
<path d="M7396 22844 c-3 -8 -6 -166 -6 -349 0 -294 2 -334 16 -339 24 -9 937
-7 952 2 9 7 12 84 10 353 l-3 344 -481 3 c-433 2 -482 1 -488 -14z m926 -334
l-1 -305 -433 -5 c-238 -3 -437 -2 -441 1 -7 5 -11 388 -7 612 0 4 199 6 441
5 l442 -3 -1 -305z"/>
<path d="M8542 22843 c-10 -25 -9 -670 1 -680 11 -10 1028 -15 1044 -5 19 12
20 682 1 693 -7 5 -244 9 -526 9 -479 0 -513 -1 -520 -17z m1018 -339 l0 -304
-490 0 -490 0 0 305 0 305 478 2 c262 2 483 1 490 -1 9 -2 12 -72 12 -307z"/>
<path d="M9699 22839 c-18 -18 -19 -40 -19 -338 0 -277 2 -322 16 -335 14 -14
82 -16 599 -16 l585 0 16 25 c14 21 15 63 13 327 -2 289 -8 347 -33 349 -6 0
-269 2 -585 3 -548 3 -575 2 -592 -15z m1149 -336 l2 -303 -553 0 c-305 0
-556 2 -558 4 -2 2 -3 140 -1 305 l3 301 552 -2 552 -3 3 -302z"/>
<path d="M11538 22852 l-548 -2 -5 -23 c-3 -12 -5 -165 -3 -340 3 -269 5 -319
18 -327 9 -6 247 -9 617 -7 477 1 605 5 615 15 10 10 13 84 12 338 -1 179 -6
329 -10 334 -15 13 -128 15 -696 12z m657 -347 l0 -300 -582 -3 -583 -2 0 298
c0 164 3 302 7 305 3 4 266 6 582 5 l576 -3 0 -300z"/>
<path d="M12388 22304 c-3 -36 -12 -46 -51 -58 -15 -5 -17 -15 -15 -73 3 -62
5 -68 28 -73 23 -5 25 -11 25 -60 0 -49 -2 -55 -25 -60 -23 -5 -25 -11 -28
-73 l-3 -68 36 -14 c33 -14 35 -18 35 -60 0 -39 -3 -46 -30 -60 -30 -16 -31
-18 -28 -78 3 -56 5 -63 31 -75 23 -11 27 -19 27 -52 0 -32 -5 -43 -30 -60
-28 -20 -30 -26 -30 -85 0 -57 2 -64 23 -71 29 -9 37 -22 37 -66 0 -32 -4 -39
-25 -44 -13 -3 -27 -15 -31 -26 -9 -31 5 -128 20 -128 7 0 20 -6 30 -13 27
-20 12 -93 -23 -110 -24 -11 -26 -18 -29 -78 -3 -66 -3 -67 28 -77 27 -10 30
-15 30 -52 0 -35 -4 -42 -27 -53 -38 -16 -39 -17 -33 -87 5 -61 6 -63 40 -74
21 -7 34 -17 32 -26 -2 -8 -4 -27 -4 -43 -1 -21 -8 -32 -27 -40 -36 -16 -41
-25 -41 -82 0 -59 5 -69 45 -82 17 -5 30 -15 29 -21 -1 -7 -2 -26 -2 -43 -2
-24 -8 -32 -32 -40 -34 -12 -40 -27 -36 -86 3 -46 17 -69 47 -78 33 -11 24
-54 -21 -95 -34 -32 -39 -41 -32 -61 12 -31 51 -38 59 -10 3 11 16 27 30 36
24 16 25 20 18 86 -6 55 -12 76 -31 94 -34 34 -31 58 11 81 20 11 22 35 15
167 0 4 -9 7 -19 7 -42 0 -37 74 6 91 24 9 25 11 18 87 -5 55 -12 81 -25 93
-33 29 -36 89 -4 89 22 0 35 35 25 64 -6 13 -7 40 -4 59 4 30 1 38 -21 52 -33
22 -33 49 -1 81 28 28 29 32 27 122 -2 57 -4 63 -27 72 -35 13 -35 63 0 86 23
15 24 22 23 87 -1 60 -4 74 -25 93 -30 28 -29 57 4 88 23 22 27 33 25 73 -3
72 -12 102 -33 113 -26 15 -24 46 6 76 22 22 25 34 25 95 0 62 -3 73 -25 93
-31 29 -33 70 -3 91 21 14 23 22 20 93 -2 62 -6 80 -22 94 -27 22 -27 74 0 83
24 8 32 38 22 84 -11 48 -30 51 -34 5z"/>
<path d="M820 22120 c-19 -19 -20 -33 -20 -314 0 -241 3 -296 14 -305 11 -9
165 -12 600 -11 322 0 592 3 601 6 13 5 15 45 15 310 0 302 0 303 -22 318 -20
14 -93 16 -595 16 -560 0 -573 0 -593 -20z m1002 -33 l148 -2 2 -273 c2 -149
1 -272 -2 -272 -3 0 -251 -3 -552 -5 -346 -3 -549 -2 -553 5 -10 16 -7 543 4
549 8 5 596 4 953 -2z"/>
<path d="M2132 22104 c-14 -10 -16 -53 -16 -302 -1 -189 3 -295 9 -301 16 -16
1161 -17 1180 -1 13 10 15 59 15 294 0 210 -3 286 -12 299 -12 15 -64 17 -587
19 -413 2 -578 0 -589 -8z m1123 -42 c6 -4 8 -99 5 -267 l-5 -260 -530 0
c-291 -1 -538 1 -547 3 -17 3 -18 24 -18 262 0 197 3 260 13 263 20 8 1071 7
1082 -1z"/>
<path d="M3452 22098 c-9 -9 -12 -89 -12 -303 0 -270 1 -293 18 -308 17 -15
77 -17 660 -17 l642 0 5 23 c3 12 4 155 3 317 l-3 295 -650 3 c-498 2 -654 -1
-663 -10z m1269 -295 c0 -145 0 -266 -1 -270 0 -8 -1210 -6 -1217 1 -9 9 -7
526 2 530 6 3 281 4 613 3 l603 -2 0 -262z"/>
<path d="M4897 22086 c-17 -13 -18 -35 -17 -302 0 -192 4 -292 11 -301 9 -10
86 -13 375 -13 349 0 364 1 374 19 6 12 10 125 10 296 0 171 -4 284 -10 296
-10 18 -25 19 -368 19 -287 -1 -361 -3 -375 -14z m698 -296 l0 -265 -324 -3
c-187 -1 -329 2 -334 7 -9 9 -10 491 -1 514 3 9 85 12 332 12 l327 0 0 -265z"/>
<path d="M5737 22082 c-15 -16 -17 -52 -17 -303 0 -156 4 -289 8 -296 6 -9 85
-13 309 -13 166 -1 307 1 313 5 11 7 15 581 4 609 -5 14 -42 16 -304 16 -275
0 -298 -1 -313 -18z m575 -40 c1 -9 2 -133 0 -274 l-3 -258 -259 0 c-173 0
-261 4 -265 11 -9 13 -8 516 0 529 4 7 98 10 265 9 233 0 258 -2 262 -17z"/>
<path d="M6543 22080 l-23 -9 0 -285 c0 -156 3 -291 6 -300 5 -14 48 -16 380
-16 l374 0 2 113 c5 245 3 479 -4 490 -9 15 -701 21 -735 7z m697 -300 c0
-201 -3 -260 -12 -261 -64 -3 -642 2 -649 7 -10 6 -13 497 -2 507 3 4 154 7
335 7 l328 0 0 -260z"/>
<path d="M7402 22068 c-19 -19 -17 -581 2 -597 9 -8 146 -10 487 -9 l474 3 0
305 0 305 -475 3 c-362 2 -479 -1 -488 -10z m913 -36 c10 -2 12 -508 2 -518
-3 -3 -653 -7 -862 -4 -13 0 -15 35 -15 258 0 142 2 261 5 264 4 4 844 4 870
0z"/>
<path d="M8547 22073 c-11 -17 -12 -592 -1 -603 7 -7 174 -9 530 -8 l519 3 0
305 0 305 -522 3 c-287 1 -524 -1 -526 -5z m1008 -303 l0 -261 -475 0 c-261 0
-481 0 -487 0 -10 1 -13 60 -13 260 0 236 2 260 17 263 9 2 229 2 487 1 l471
-1 0 -262z"/>
<path d="M9714 22072 c-16 -10 -28 -580 -12 -599 8 -10 124 -13 594 -13 516 0
584 2 598 16 14 13 16 54 16 292 0 157 -4 283 -10 292 -8 13 -87 15 -592 17
-321 1 -588 -1 -594 -5z m1020 -45 l119 -2 -2 -254 c0 -140 -3 -256 -5 -258
-2 -2 -250 -4 -552 -4 l-549 0 -3 253 c-1 139 -1 257 2 263 3 9 596 11 990 2z"/>
<path d="M10997 22063 c-4 -3 -7 -138 -7 -298 0 -224 3 -295 13 -303 8 -7 207
-11 607 -12 327 -1 600 -1 606 -1 31 2 35 58 29 331 -3 150 -8 277 -11 282 -6
9 -1228 11 -1237 1z m1198 -55 c3 -13 4 -131 3 -263 l-3 -240 -579 0 -579 0 1
258 c0 141 1 259 1 262 1 3 260 5 576 5 l575 0 5 -22z"/>
<path d="M818 21379 c-17 -9 -18 -34 -18 -298 0 -225 3 -291 13 -299 21 -18
1176 -18 1193 0 10 10 13 82 15 300 2 158 0 291 -5 295 -12 12 -1178 15 -1198
2z m1147 -304 l0 -260 -543 -3 c-299 -1 -550 2 -558 6 -13 7 -15 46 -14 257 0
136 3 252 6 257 3 4 254 7 557 6 l552 -3 0 -260z"/>
<path d="M2123 21368 c-13 -21 -16 -574 -3 -598 11 -20 17 -20 591 -20 l579 0
10 26 c14 35 13 560 0 585 -10 18 -27 19 -590 19 -452 0 -581 -3 -587 -12z
m1125 -43 c9 -3 12 -63 12 -254 0 -137 -2 -255 -5 -263 -4 -11 -105 -13 -548
-13 l-542 0 -3 260 c-2 211 0 262 11 270 14 10 1047 10 1075 0z"/>
<path d="M3436 21358 c-10 -38 -7 -582 4 -598 8 -13 93 -15 647 -17 351 -1
648 0 661 3 l22 4 -2 313 -3 312 -661 3 -662 2 -6 -22z m1289 -301 c-1 -138
-3 -255 -4 -259 0 -5 -280 -8 -621 -8 -489 0 -620 3 -620 13 -1 12 -1 505 0
519 0 5 276 9 613 10 482 2 614 0 623 -10 8 -8 11 -90 9 -265z"/>
<path d="M4890 21360 c-19 -19 -20 -33 -20 -304 0 -156 3 -291 6 -300 5 -14
48 -16 379 -16 206 0 376 4 379 8 3 5 6 143 7 307 1 277 0 300 -17 312 -14 10
-94 13 -366 13 -335 0 -349 -1 -368 -20z m705 -310 l0 -265 -335 0 -335 0 -3
268 -2 267 337 -2 338 -3 0 -265z"/>
<path d="M5725 21351 c-7 -13 -7 -589 0 -601 4 -6 130 -10 314 -10 295 0 309
1 314 19 10 41 8 560 -3 581 -10 19 -19 20 -315 20 -178 0 -306 -4 -310 -9z
m568 -41 c16 0 17 -17 15 -262 l-3 -262 -270 1 -270 1 -3 253 c-1 140 -1 258
2 264 2 7 86 10 257 8 140 -2 262 -3 272 -3z"/>
<path d="M6527 21353 c-4 -3 -7 -141 -7 -305 l0 -298 25 -10 c13 -5 175 -10
359 -10 260 -1 338 1 355 12 21 13 21 19 21 300 0 247 -2 289 -16 302 -13 14
-61 16 -373 16 -197 0 -361 -3 -364 -7z m689 -46 c2 -1 4 -119 5 -262 l2 -260
-327 -3 c-257 -2 -326 0 -326 10 -2 80 2 512 4 517 4 6 637 4 642 -2z"/>
<path d="M7390 21341 c-6 -12 -10 -126 -10 -299 0 -257 1 -280 18 -295 17 -15
65 -17 483 -17 348 0 468 3 477 12 17 17 17 589 0 606 -9 9 -130 12 -485 12
-457 0 -473 -1 -483 -19z m506 -31 l424 0 0 -265 0 -265 -442 2 -443 3 -3 255
c-1 140 0 261 3 268 3 8 12 11 21 8 9 -3 207 -6 440 -6z"/>
<path d="M8542 21348 c-9 -9 -12 -90 -12 -304 0 -291 0 -293 22 -308 20 -14
86 -16 523 -16 376 0 504 3 513 12 17 17 17 599 0 616 -9 9 -139 12 -523 12
-384 0 -514 -3 -523 -12z m1013 -303 l0 -260 -484 -3 c-267 -1 -487 1 -490 5
-3 5 -5 124 -3 266 l3 257 487 -2 487 -3 0 -260z"/>
<path d="M9705 21350 c-3 -5 -8 -138 -11 -295 -5 -251 -3 -290 11 -311 l15
-24 580 0 c570 0 579 0 590 20 7 14 10 117 8 311 -3 244 -5 291 -18 299 -20
13 -1167 13 -1175 0z m1143 -307 c1 -173 -1 -263 -8 -263 -296 -3 -1084 1
-1091 5 -10 7 -13 508 -2 518 3 4 252 6 552 5 l546 -3 3 -262z"/>
<path d="M10997 21353 c-9 -8 -9 -596 -1 -617 6 -14 69 -16 615 -16 l608 0 12
21 c7 15 12 116 13 311 1 247 -1 290 -14 298 -17 11 -1223 14 -1233 3z m1203
-297 c0 -140 -3 -262 -6 -270 -6 -15 -64 -16 -579 -16 -506 1 -574 3 -579 16
-3 9 -6 130 -6 270 l0 254 585 0 585 0 0 -254z"/>
<path d="M807 20653 c-4 -3 -7 -133 -7 -288 0 -205 3 -284 12 -293 9 -9 153
-12 588 -12 316 0 581 4 588 8 9 7 12 73 10 298 l-3 289 -591 3 c-325 1 -594
-1 -597 -5z m1131 -42 c10 -6 14 -64 16 -250 1 -133 -1 -244 -5 -247 -4 -2
-248 -6 -542 -8 -453 -4 -537 -2 -547 9 -17 21 -26 471 -10 491 11 12 93 14
544 14 292 0 537 -4 544 -9z"/>
<path d="M2116 20644 c-3 -9 -6 -143 -6 -299 0 -249 2 -284 16 -289 9 -3 271
-6 583 -6 428 0 570 3 579 12 16 16 17 550 2 579 -10 18 -27 19 -589 19 -519
0 -579 -2 -585 -16z m607 -36 c280 -2 513 -6 519 -9 9 -6 14 -487 5 -495 -2
-2 -248 -4 -547 -5 l-543 -2 1 252 c1 138 4 256 8 262 3 6 16 8 28 6 11 -3
250 -7 529 -9z"/>
<path d="M3435 20627 c-3 -7 -4 -143 -3 -302 l3 -290 665 0 665 0 0 300 0 300
-663 3 c-528 2 -664 0 -667 -11z m1286 -285 c0 -139 0 -257 -1 -262 0 -7 -209
-9 -622 -8 l-621 3 1 260 c1 143 1 262 2 264 0 2 279 1 621 -1 l621 -5 -1
-251z"/>
<path d="M4880 20611 c-12 -23 -14 -549 -2 -568 12 -19 752 -20 764 -1 4 7 8
132 7 278 0 214 -3 269 -15 288 l-14 22 -365 0 c-350 0 -365 -1 -375 -19z
m718 -293 l2 -248 -340 0 c-265 0 -340 3 -340 13 -1 12 -1 479 0 485 0 1 152
1 338 0 l337 -3 3 -247z"/>
<path d="M5727 20623 c-4 -3 -7 -136 -7 -295 0 -222 3 -290 13 -293 16 -6 588
-13 605 -8 9 4 12 73 12 304 l0 299 -308 0 c-170 0 -312 -3 -315 -7z m570 -55
c10 -8 13 -69 13 -254 l0 -244 -270 0 -270 0 0 248 c0 185 3 251 13 261 10 11
61 12 257 6 147 -4 250 -11 257 -17z"/>
<path d="M6530 20611 c-6 -12 -10 -126 -10 -300 l0 -281 23 -5 c12 -3 177 -4
367 -3 l345 3 3 283 c1 184 -1 290 -8 302 -10 19 -23 20 -360 20 -335 0 -350
-1 -360 -19z m683 -295 l2 -248 -319 1 c-175 0 -321 3 -323 5 -4 3 -6 400 -3
489 0 4 144 6 321 5 l320 -3 2 -249z"/>
<path d="M7386 20608 c-14 -19 -16 -65 -16 -300 0 -254 1 -278 18 -286 25 -14
918 -23 947 -10 21 9 22 17 28 151 7 175 -2 438 -16 455 -7 9 -115 12 -478 12
l-468 0 -15 -22z m928 -293 l1 -250 -442 -3 c-351 -2 -443 0 -443 10 -4 139 3
494 9 498 5 3 204 3 441 0 l433 -5 1 -250z"/>
<path d="M8537 20609 c-15 -20 -17 -58 -17 -297 0 -169 4 -281 10 -293 10 -18
27 -19 534 -19 l524 0 6 23 c3 12 6 144 6 293 0 205 -3 274 -13 288 -12 16
-51 18 -523 23 l-511 6 -16 -24z m1015 -286 c2 -137 1 -254 -1 -261 -2 -10
-105 -12 -490 -10 l-486 3 -3 245 c-1 134 0 250 3 257 3 10 107 13 489 13
l485 0 3 -247z"/>
<path d="M9697 20602 c-15 -16 -17 -51 -17 -288 0 -228 2 -273 16 -292 l15
-22 583 0 c523 0 584 2 590 16 3 9 6 143 6 299 0 271 -1 285 -19 295 -13 6
-216 10 -589 10 -538 0 -570 -1 -585 -18z m1151 -272 c1 -129 1 -244 -2 -255
-5 -20 -13 -20 -553 -19 l-548 0 -5 248 c-3 151 -1 251 5 257 6 6 217 8 555 7
l545 -3 3 -235z"/>
<path d="M818 19989 c-17 -9 -18 -34 -18 -298 0 -254 2 -290 16 -295 9 -3 278
-6 599 -6 522 0 583 2 589 16 11 28 7 554 -4 575 -10 18 -27 19 -588 19 -373
-1 -583 -4 -594 -11z m1138 -50 c4 -8 8 -385 4 -499 0 -4 -709 -4 -1107 0 -10
0 -13 57 -13 250 l0 250 548 3 c301 1 550 3 554 5 4 1 10 -3 14 -9z"/>
<path d="M2495 19980 l-380 -5 -6 -150 c-10 -245 -10 -415 1 -436 10 -18 28
-19 590 -19 562 0 580 1 590 19 12 23 14 559 2 578 -10 16 -264 20 -797 13z
m749 -49 c8 -7 10 -82 6 -258 l-5 -248 -480 -2 c-264 -2 -508 -4 -542 -7 -48
-3 -63 0 -67 11 -8 20 -7 498 0 506 11 10 1075 8 1088 -2z"/>
<path d="M3441 19956 c-8 -9 -11 -97 -9 -302 l3 -289 650 -2 c398 -2 656 1
665 7 13 8 15 53 18 284 2 184 -1 282 -8 296 -11 20 -19 20 -659 20 -537 0
-651 -2 -660 -14z m1276 -49 c2 -3 4 -116 4 -253 l1 -249 -622 3 -622 3 0 242
c0 133 1 247 1 252 1 9 1228 11 1238 2z"/>
<path d="M4885 19944 c-14 -14 -16 -49 -13 -290 2 -207 6 -276 16 -286 10 -10
95 -14 375 -16 336 -3 362 -2 374 14 10 14 13 83 13 289 0 251 -1 273 -18 288
-17 15 -57 17 -375 17 -314 0 -357 -2 -372 -16z m710 -289 l0 -250 -339 0
-339 0 2 245 c0 135 1 248 1 253 0 4 152 6 338 5 l337 -3 0 -250z"/>
<path d="M5738 19949 c-17 -9 -18 -34 -18 -294 0 -282 0 -284 22 -299 19 -14
64 -16 288 -16 146 0 275 3 287 6 12 3 24 13 28 22 3 9 6 143 5 296 0 211 -3
282 -13 288 -18 12 -579 9 -599 -3z m560 -47 c9 -7 12 -64 10 -253 l-3 -244
-270 0 -270 0 0 245 c-1 160 3 248 10 252 14 10 507 10 523 0z"/>
<path d="M6524 19939 c-4 -6 -9 -131 -12 -278 -4 -257 -4 -267 16 -291 l20
-25 331 -3 c224 -2 337 0 351 8 19 10 20 20 20 299 l0 289 -22 6 c-44 11 -696
7 -704 -5z m614 -42 l63 -2 0 -245 1 -245 -319 0 -318 0 -3 240 c-1 132 0 245
2 250 3 9 363 10 574 2z"/>
<path d="M7394 19942 c-30 -4 -34 -37 -34 -319 0 -231 1 -244 20 -263 20 -20
30 -20 478 -18 351 2 462 6 480 16 l22 13 -2 282 -3 282 -470 5 c-258 3 -480
4 -491 2z m911 -52 c8 -12 8 -468 0 -480 -4 -6 -173 -10 -451 -10 l-444 0 0
243 c0 134 3 247 7 250 10 11 881 8 888 -3z"/>
<path d="M8531 19917 c-19 -35 -12 -547 8 -570 12 -15 62 -17 531 -17 463 0
519 2 524 16 3 9 6 139 6 289 0 235 -2 276 -16 289 -14 14 -75 16 -528 16
l-513 0 -12 -23z m1021 -287 c-1 -135 -2 -247 -2 -250 0 -3 -219 -4 -487 -3
l-488 3 -3 237 c-1 131 0 243 3 250 3 11 103 13 491 11 l487 -3 -1 -245z"/>
<path d="M9700 19914 c-14 -35 -13 -540 0 -565 10 -18 26 -19 461 -19 l449 0
11 28 c13 34 12 522 -1 557 l-10 25 -450 0 -450 0 -10 -26z m878 -283 c1 -138
-1 -251 -5 -251 -5 0 -192 0 -418 -1 l-410 0 -3 243 c-1 133 -1 247 2 253 2 7
144 9 417 8 l414 -1 3 -251z"/>
<path d="M5321 29556 c-13 -16 -17 -150 -27 -966 -6 -530 -6 -566 1 -654 5
-57 10 -64 35 -48 11 7 21 8 25 2 3 -5 66 -9 141 -9 144 0 158 5 134 48 -15
29 -85 29 -116 0 l-22 -21 -7 22 c-6 20 -12 22 -66 18 l-59 -4 0 42 c0 25 -6
47 -15 54 -8 7 -15 18 -15 25 0 7 7 18 15 25 18 15 20 82 3 110 -10 16 -9 25
5 49 21 36 21 57 2 94 -13 26 -13 31 0 50 20 29 19 76 -2 99 -16 18 -16 21 0
47 21 36 22 85 2 105 -8 8 -15 22 -15 31 0 8 7 18 15 21 25 10 20 93 -7 121
l-22 23 22 20 c27 25 31 100 7 120 -14 12 -14 15 1 32 19 21 21 92 3 114 -9
11 -7 20 5 39 18 28 21 96 5 112 -8 8 -7 17 5 34 20 30 21 78 0 107 -14 20
-14 24 0 44 23 32 21 85 -3 98 -26 13 -36 13 -50 -4z"/>
<path d="M5745 28053 c-14 -15 -25 -39 -25 -53 0 -32 -10 -47 -35 -51 -24 -5
-44 -54 -29 -69 7 -7 28 -8 52 -4 l42 7 0 47 c0 52 28 100 58 100 25 0 56 -63
49 -99 -8 -40 10 -52 85 -57 78 -6 96 4 82 43 -8 24 -15 28 -49 27 -22 0 -47
-2 -55 -5 -11 -3 -16 6 -20 34 -3 20 -18 53 -33 72 -36 46 -84 48 -122 8z"/>
<path d="M6455 28055 c-14 -14 -25 -37 -25 -50 0 -39 -11 -55 -38 -55 -14 0
-33 -7 -43 -16 -16 -15 -20 -15 -41 0 -12 9 -40 16 -61 16 -33 0 -40 -4 -52
-32 l-13 -33 -10 26 c-12 29 -30 39 -71 39 -47 0 -83 -60 -45 -74 25 -9 367
-5 385 5 11 5 19 28 24 64 15 120 95 110 95 -12 l0 -53 95 0 c92 0 95 1 95 23
0 13 -5 28 -12 35 -17 17 -73 15 -108 -3 l-30 -16 0 52 c0 43 -5 55 -29 80
-38 37 -80 39 -116 4z"/>
<path d="M6775 27930 c-9 -10 -15 -26 -12 -33 12 -31 137 -31 137 0 0 8 -5 23
-10 34 -15 27 -90 27 -115 -1z"/>
<path d="M6918 27925 c-18 -41 4 -54 80 -46 34 4 66 4 70 0 4 -3 35 -4 70 -2
56 5 62 8 62 27 0 34 -20 46 -77 46 -37 0 -55 -5 -61 -16 -8 -14 -10 -14 -21
0 -9 11 -30 16 -62 16 -43 0 -51 -3 -61 -25z"/>
<path d="M5087 27629 c-20 -3 -39 -8 -41 -10 -3 -2 -6 -113 -8 -247 -3 -207
-1 -244 12 -252 9 -6 140 -10 306 -10 257 0 293 2 298 16 3 9 6 121 6 249 0
213 -2 235 -17 244 -21 10 -500 20 -556 10z m512 -55 c10 -9 6 -424 -4 -426
-5 -2 -122 -1 -260 2 l-250 5 2 215 c1 118 2 215 3 216 2 3 506 -8 509 -12z"/>
<path d="M5752 27618 c-17 -17 -16 -219 1 -240 10 -13 58 -17 329 -22 309 -7
317 -7 327 13 6 11 11 67 11 125 0 82 -3 108 -16 120 -13 14 -57 16 -328 16
-229 0 -315 -3 -324 -12z m616 -126 l-3 -87 -285 3 c-157 2 -287 6 -290 8 -5
5 0 155 5 164 2 3 132 4 289 2 l287 -3 -3 -87z"/>
<path d="M6675 27622 c-61 -2 -83 -7 -92 -19 -19 -24 -18 -227 1 -242 9 -8
118 -11 382 -9 l369 3 3 122 c2 109 1 123 -15 132 -18 9 -487 19 -648 13z
m346 -55 c135 -2 251 -7 257 -11 18 -11 16 -162 -2 -169 -8 -3 -158 -3 -333
-1 l-318 5 -3 72 c-5 117 -5 118 81 112 39 -3 183 -7 318 -8z"/>
<path d="M7440 27610 c-23 -14 -27 -242 -4 -264 13 -13 45 -16 177 -18 321 -4
382 -3 400 4 15 6 17 23 17 134 0 109 -2 129 -17 140 -14 10 -79 13 -288 14
-151 0 -277 -4 -285 -10z m550 -139 c0 -62 -4 -90 -12 -93 -7 -3 -124 -3 -260
0 l-248 4 0 89 0 89 260 0 260 0 0 -89z"/>
<path d="M8081 27591 c-20 -13 -23 -217 -4 -248 13 -22 20 -23 133 -23 116 0
121 1 129 23 12 33 12 229 -1 244 -12 15 -234 18 -257 4z m215 -39 c7 -4 11
-41 10 -97 l-1 -90 -95 0 -94 0 -1 90 c0 50 5 93 10 97 6 4 44 8 85 8 41 0 80
-4 86 -8z"/>
<path d="M5749 27316 c-11 -12 -12 -186 -1 -202 4 -6 15 -13 24 -17 24 -8 628
-10 636 -2 8 8 9 211 2 219 -10 10 -651 11 -661 2z m599 -33 c20 -5 22 -11 22
-73 0 -56 -3 -68 -17 -71 -10 -2 -142 -2 -293 1 l-275 5 0 65 c-1 36 1 69 3
73 4 9 521 8 560 0z"/>
<path d="M6576 27304 c-25 -24 -23 -185 2 -207 17 -15 57 -17 375 -17 l356 0
15 22 c11 16 16 46 16 98 0 63 -4 80 -20 98 -21 22 -23 22 -375 22 -308 0
-356 -2 -369 -16z m700 -36 c8 -12 7 -103 -1 -128 -4 -13 -48 -15 -327 -13
l-323 1 -3 76 -3 76 325 0 c234 0 327 -3 332 -12z"/>
<path d="M7428 27253 c-9 -68 -1 -165 13 -174 23 -15 552 -11 572 4 15 10 17
27 15 107 l-3 95 -296 3 -296 2 -5 -37z m545 -3 c14 0 17 -10 17 -64 0 -42 -4
-65 -12 -68 -10 -4 -418 -2 -500 2 -14 0 -9 128 5 133 6 2 116 2 242 0 127 -2
238 -3 248 -3z"/>
<path d="M8087 27276 c-22 -23 -25 -187 -3 -205 7 -6 63 -14 123 -18 87 -5
112 -3 118 8 11 17 15 193 5 209 -4 7 -50 14 -116 17 -95 5 -112 3 -127 -11z
m205 -44 c5 -5 8 -36 6 -68 l-3 -59 -83 2 c-45 1 -87 5 -92 8 -11 7 -10 92 1
115 5 12 24 15 84 13 43 -1 82 -6 87 -11z"/>
<path d="M5051 27051 c-21 -21 -21 -27 -21 -433 0 -227 4 -418 8 -425 5 -7 63
-14 168 -18 131 -6 167 -4 196 8 30 12 37 13 42 2 7 -19 164 -26 194 -8 l22
13 0 425 c0 409 -1 425 -19 435 -29 15 -178 13 -188 -2 -4 -7 -8 -47 -9 -88 0
-41 -2 -228 -5 -415 l-3 -340 -6 417 c-4 312 -8 420 -17 429 -9 9 -65 14 -177
17 -156 4 -165 3 -185 -17z m329 -431 c-1 -296 -4 -396 -13 -402 -9 -6 -280
-4 -294 1 -2 1 4 794 6 799 0 1 69 1 152 0 l151 -3 -2 -395z m212 395 c12 -5
14 -218 8 -798 0 -4 -28 -7 -61 -5 l-61 3 1 394 c1 217 4 398 7 403 6 9 84 11
106 3z"/>
<path d="M5755 27039 c-7 -10 -9 -188 -3 -194 6 -6 632 -13 645 -8 9 4 13 31
13 99 0 82 -2 95 -19 104 -27 14 -627 14 -636 -1z m603 -52 c18 -15 16 -103
-4 -111 -26 -10 -549 -7 -559 3 -6 6 -8 37 -7 70 l4 61 276 -6 c158 -4 282
-11 290 -17z"/>
<path d="M6583 27030 c-22 -9 -23 -15 -23 -110 0 -100 0 -101 27 -111 18 -7
145 -8 381 -3 324 6 354 9 362 25 17 30 12 165 -6 183 -13 14 -60 16 -354 16
-186 0 -344 2 -352 4 -7 3 -23 1 -35 -4z m693 -52 c9 -15 9 -112 0 -126 -6
-10 -626 -16 -658 -6 -14 4 -17 16 -15 67 1 34 7 65 12 69 6 4 155 8 332 8
243 0 324 -3 329 -12z"/>
<path d="M7447 27006 c-15 -12 -17 -27 -15 -102 l3 -89 130 0 130 0 3 88 c2
57 -1 94 -9 103 -16 19 -216 19 -242 0z m219 -59 c3 -13 4 -41 2 -63 l-3 -39
-65 -3 c-36 -2 -80 0 -97 3 -32 6 -33 8 -33 53 0 27 5 53 12 60 7 7 44 12 95
12 78 0 83 -1 89 -23z"/>
<path d="M7758 26999 c-15 -8 -18 -25 -18 -94 0 -46 4 -86 9 -89 5 -3 66 -7
135 -8 102 -2 129 1 136 12 6 8 10 50 10 93 0 74 -1 78 -26 87 -33 13 -224 12
-246 -1z m216 -45 c12 -4 16 -20 16 -55 0 -58 -6 -61 -125 -57 l-80 3 -3 44
c-5 69 -3 71 92 71 46 0 91 -3 100 -6z"/>
<path d="M8082 26988 c-14 -14 -17 -164 -4 -172 9 -5 168 -10 225 -7 l27 1 0
89 0 89 -31 6 c-56 11 -204 7 -217 -6z m207 -42 c7 -8 11 -34 9 -58 l-3 -43
-90 0 -90 0 -3 49 c-2 32 1 52 10 57 23 15 154 11 167 -5z"/>
<path d="M5750 26784 c-11 -28 -13 -185 -4 -221 6 -23 9 -23 158 -23 105 0
156 4 164 12 19 19 16 222 -4 242 -13 13 -42 16 -160 16 l-144 0 -10 -26z
m285 -109 l0 -90 -122 -3 -123 -3 0 96 0 96 123 -3 122 -3 0 -90z"/>
<path d="M6127 26792 c-15 -16 -17 -53 -17 -315 0 -278 1 -297 18 -306 11 -6
69 -11 131 -12 87 -1 116 2 127 13 12 12 16 71 21 299 6 282 5 284 -16 312
-22 27 -24 27 -135 27 -97 0 -115 -3 -129 -18z m211 -38 c15 -4 18 -540 2
-546 -5 -1 -51 -1 -101 2 l-91 5 1 270 c1 186 5 271 13 276 11 7 150 2 176 -7z"/>
<path d="M6584 26782 c-25 -4 -34 -48 -34 -168 0 -104 0 -104 217 -104 125 0
174 3 179 12 9 14 9 246 1 254 -5 6 -329 11 -363 6z m331 -117 c0 -120 10
-114 -157 -108 -79 3 -147 9 -152 14 -9 8 -9 156 0 171 3 5 74 7 157 6 l152
-3 0 -80z"/>
<path d="M7945 26780 l-189 -5 -13 -25 c-16 -32 -18 -551 -3 -581 10 -18 24
-19 290 -19 212 0 281 3 287 13 4 6 9 141 11 299 4 345 10 329 -115 326 -43
-1 -163 -5 -268 -8z m158 -40 l190 0 -8 -62 c-4 -35 -9 -155 -11 -268 -2 -113
-4 -208 -4 -212 0 -5 -110 -8 -245 -8 -226 0 -245 1 -246 18 -1 9 0 22 1 27 5
23 0 431 -6 458 -10 47 10 60 80 53 32 -3 144 -6 249 -6z"/>
<path d="M7017 26774 c-4 -4 -7 -61 -7 -126 0 -118 0 -119 26 -128 14 -6 81
-10 149 -10 147 0 137 -12 133 155 l-3 110 -146 3 c-80 1 -148 -1 -152 -4z
m261 -107 c4 -110 4 -110 -114 -108 -55 1 -103 6 -107 10 -10 10 -12 155 -2
170 4 8 43 11 113 9 l107 -3 3 -78z"/>
<path d="M7436 26772 c-8 -14 -18 -559 -11 -593 l7 -30 131 3 132 3 0 310 0
310 -127 3 c-69 1 -129 -1 -132 -6z m220 -33 c10 -16 4 -543 -6 -549 -4 -3
-47 -4 -94 -2 l-86 3 0 274 0 274 43 4 c91 8 136 7 143 -4z"/>
<path d="M5774 26502 c-13 -2 -25 -13 -28 -25 -9 -36 -6 -281 4 -297 13 -22
291 -28 308 -8 7 9 14 72 17 156 7 176 13 169 -160 174 -66 1 -130 2 -141 0z
m251 -62 c6 -5 8 -50 5 -117 l-5 -108 -120 0 -120 0 2 115 c1 63 2 118 2 122
1 9 223 -3 236 -12z"/>
<path d="M6556 26464 c-3 -8 -6 -78 -6 -154 0 -105 3 -140 14 -149 9 -8 70
-11 197 -9 l184 3 0 160 0 160 -191 3 c-168 2 -192 0 -198 -14z m351 -29 c10
-3 12 -133 4 -233 -1 -10 -34 -12 -153 -10 l-153 3 -3 114 c-1 63 -1 120 1
126 4 10 273 10 304 0z"/>
<path d="M7027 26467 c-13 -10 -16 -36 -18 -155 -2 -86 1 -146 7 -152 7 -7 67
-9 155 -8 l144 3 2 145 c2 80 0 150 -5 156 -11 17 -264 27 -285 11z m241 -53
c8 -2 12 -32 12 -103 0 -55 -2 -105 -5 -113 -4 -11 -29 -13 -113 -10 -59 2
-109 6 -111 8 -6 6 -9 206 -4 221 4 9 32 11 106 7 56 -3 108 -7 115 -10z"/>
<path d="M5052 26122 c-9 -6 -13 -52 -15 -160 -2 -127 1 -154 13 -162 23 -15
577 -13 586 2 12 19 18 304 7 311 -17 10 -577 19 -591 9z m543 -167 l0 -130
-255 0 -255 0 -3 119 c-1 66 0 126 2 133 4 11 56 13 258 11 l253 -3 0 -130z"/>
<path d="M5740 26101 c-14 -27 -13 -298 1 -306 16 -11 633 -5 643 5 14 14 20
260 7 293 l-11 27 -314 0 c-301 0 -316 -1 -326 -19z m605 -44 c3 -12 5 -69 3
-127 l-3 -105 -280 0 -280 0 -3 124 c-1 70 1 127 7 130 5 3 131 5 280 3 270
-3 271 -3 276 -25z"/>
<path d="M6562 26108 c-10 -14 -22 -252 -14 -294 l4 -24 378 0 c335 0 379 2
384 16 3 9 6 76 6 149 0 108 -3 137 -16 149 -13 14 -61 16 -373 16 -275 0
-361 -3 -369 -12z m706 -43 c2 -1 4 -56 5 -121 l2 -119 -340 0 -340 0 -3 95
c-2 52 -1 109 3 126 l5 31 333 -5 c182 -2 333 -5 335 -7z"/>
<path d="M7421 26092 c-8 -14 -11 -70 -9 -159 l3 -138 439 -3 c300 -1 443 1
450 8 6 6 12 68 14 143 3 112 1 135 -12 146 -12 10 -111 14 -445 19 l-429 5
-11 -21z m852 -151 c0 -88 -3 -115 -14 -120 -8 -3 -191 -5 -406 -3 l-393 2 0
120 0 120 406 -2 407 -3 0 -114z"/>
<path d="M444 32886 c-8 -22 3 -33 18 -18 9 9 9 15 0 24 -9 9 -13 7 -18 -6z"/>
<path d="M0 17675 l0 -45 6708 -2 c4461 -2 6711 0 6718 7 7 6 9 26 7 48 l-5
37 -6714 0 -6714 0 0 -45z"/>
</g>
</svg>
